<?xml version="1.0" encoding="utf-8"?>
<!-- Generator: Adobe Illustrator 23.0.2, SVG Export Plug-In . SVG Version: 6.00 Build 0)  -->
<svg version="1.1" id="レイヤー_1" xmlns="http://www.w3.org/2000/svg" xmlns:xlink="http://www.w3.org/1999/xlink" x="0px"
	 y="0px" viewBox="0 0 649 86.5" style="enable-background:new 0 0 649 86.5;" xml:space="preserve">
<style type="text/css">
	.アーチ_x0020__x0028_グリーン_x0029_{fill:url(#SVGID_1_);stroke:#FFFFFF;stroke-width:0.25;stroke-miterlimit:1;}
	.st0{fill:#FFFFFF;}
</style>
<linearGradient id="SVGID_1_" gradientUnits="userSpaceOnUse" x1="-95" y1="376.2813" x2="-94.2929" y2="375.5742">
	<stop  offset="0" style="stop-color:#339A2A"/>
	<stop  offset="0.9831" style="stop-color:#121E0D"/>
</linearGradient>
<g>
	<path class="st0" d="M68.27,13.63L42.79,4.36l-25.48,9.27L3.75,37.12l4.71,26.71l20.77,17.43h27.12l20.77-17.43l4.71-26.71
		L68.27,13.63z M75.82,63.02L55.83,79.79H29.75L9.76,63.02L5.23,37.33l13.04-22.59l24.51-8.92l24.51,8.92l13.04,22.59L75.82,63.02z"
		/>
	<path class="st0" d="M65.72,16.55L42.79,8.2l-22.93,8.35L7.65,37.69l4.24,24.04l18.7,15.69h24.41l18.69-15.69l4.24-24.04
		L65.72,16.55z M42.95,9.76L42.95,9.76C42.95,9.76,42.95,9.76,42.95,9.76c0.01-0.01,0.01-0.01,0.01-0.01l0.01,0.01
		C55.98,18.4,60.2,35.79,52.28,49.5c-1.48,2.57-3.29,4.84-5.35,6.78c-1.1-0.64-2.16-1.36-3.16-2.16c2.05-1.81,3.84-3.98,5.28-6.48
		c6.49-11.25,3.66-25.31-6.1-33.26c-5.98,4.86-9.35,12.03-9.58,19.44c-1.28,0.42-2.52,0.92-3.73,1.5
		C29.41,25.36,34.18,15.58,42.95,9.76z M13.2,61.3l0.01-0.01h0c0.96-15.6,13.92-27.95,29.76-27.95c2.96,0,5.82,0.43,8.52,1.23
		c0.01,1.27-0.09,2.55-0.28,3.82c-2.59-0.86-5.36-1.33-8.24-1.33c-12.99,0-23.77,9.5-25.76,21.93c7.21,2.74,15.11,2.08,21.65-1.43
		c0.99,0.9,2.05,1.73,3.16,2.49C33.49,65.23,22.62,65.99,13.2,61.3z M72.72,61.3c-13.99,6.97-31.17,1.92-39.09-11.79
		c-1.48-2.57-2.54-5.27-3.2-8.02c1.1-0.64,2.25-1.2,3.45-1.67c0.55,2.68,1.53,5.33,2.97,7.83c1.63,2.83,3.72,5.23,6.11,7.18
		c0,0,0,0-0.01,0c0,0,0,0,0,0c0.01,0.01,0.03,0.02,0.04,0.03c7.11,5.77,16.93,7.49,25.72,4.14c-1.22-7.62-5.75-14.14-12.06-18.04
		c0.28-1.31,0.47-2.64,0.57-3.98c8.75,4.78,14.84,13.82,15.49,24.32h-0.01L72.72,61.3z"/>
</g>
<g>
	<g id="text5262" transform="matrix(.43750 0 0 .43750 8.1724e-8 591.96)">
		<path id="path4668" class="st0" d="M224.28-1208.63h11.19c1.95,0,3.65,0.21,5.1,0.63c1.47,0.42,2.69,1.01,3.66,1.77
			c0.98,0.74,1.71,1.63,2.21,2.67c0.5,1.01,0.74,2.14,0.74,3.36c0,1-0.19,1.95-0.58,2.83c-0.37,0.87-0.9,1.65-1.6,2.37
			c-0.7,0.69-1.53,1.3-2.51,1.83c-0.97,0.51-2.05,0.91-3.23,1.19l11.77,15.69h-6.28l-11.23-15.2h-3.81v15.2h-5.43V-1208.63
			L224.28-1208.63z M229.72-1193.13h3.14c1.22,0,2.34-0.16,3.36-0.49c1.03-0.32,1.93-0.78,2.69-1.37c0.76-0.6,1.35-1.33,1.76-2.18
			c0.43-0.85,0.65-1.8,0.65-2.85c0-0.96-0.17-1.84-0.51-2.64c-0.34-0.82-0.81-1.52-1.41-2.09c-0.6-0.58-1.32-1.05-2.16-1.37
			c-0.84-0.32-1.75-0.49-2.74-0.49h-4.78V-1193.13L229.72-1193.13z"/>
		<path id="path4670" class="st0" d="M266.59-1175.7c-1.69,0-3.27-0.32-4.75-0.95c-1.47-0.63-2.76-1.49-3.88-2.57
			c-1.1-1.1-1.97-2.37-2.62-3.83c-0.64-1.47-0.95-3.04-0.95-4.71c0-2,0.3-3.84,0.88-5.55c0.59-1.7,1.42-3.17,2.49-4.41
			c1.06-1.23,2.35-2.2,3.85-2.89c1.51-0.7,3.19-1.05,5.03-1.05c1.64,0,3.14,0.29,4.5,0.86c1.36,0.57,2.53,1.34,3.5,2.32
			c0.98,0.96,1.73,2.08,2.28,3.34c0.54,1.27,0.81,2.6,0.81,4h-18.59c0,1.67,0.22,3.23,0.65,4.66c0.43,1.42,1.04,2.65,1.81,3.69
			c0.77,1.04,1.7,1.85,2.78,2.44c1.08,0.59,2.26,0.88,3.55,0.88c1.08,0,2.12-0.17,3.11-0.51c0.99-0.35,1.89-0.81,2.69-1.37
			c0.8-0.58,1.49-1.22,2.04-1.94c0.57-0.74,0.97-1.5,1.21-2.28l1.42,0.63c-0.36,1.29-0.94,2.49-1.74,3.62
			c-0.79,1.12-1.72,2.09-2.79,2.92c-1.05,0.84-2.21,1.5-3.48,2C269.14-1175.94,267.87-1175.7,266.59-1175.7L266.59-1175.7z
			 M271.53-1193.15c0-0.94-0.17-1.82-0.51-2.62c-0.33-0.82-0.78-1.53-1.37-2.11c-0.57-0.6-1.25-1.07-2.04-1.42
			c-0.78-0.34-1.61-0.51-2.51-0.51c-0.74,0-1.46,0.17-2.16,0.51c-0.69,0.34-1.3,0.81-1.84,1.39c-0.52,0.59-0.97,1.29-1.32,2.11
			c-0.34,0.81-0.55,1.68-0.63,2.62L271.53-1193.15L271.53-1193.15z"/>
		<path id="path4672" class="st0" d="M292.68-1177.46c0.68,0,1.3-0.1,1.88-0.29c0.57-0.22,1.06-0.5,1.46-0.84
			c0.43-0.34,0.75-0.73,0.98-1.18c0.23-0.45,0.35-0.9,0.35-1.37c0-0.76-0.19-1.42-0.57-1.97c-0.38-0.58-0.87-1.08-1.51-1.53
			c-0.62-0.46-1.33-0.89-2.13-1.25c-0.8-0.37-1.62-0.75-2.46-1.14c-0.82-0.4-1.63-0.83-2.44-1.27c-0.8-0.47-1.52-0.99-2.16-1.57
			c-0.62-0.6-1.12-1.29-1.5-2.07c-0.37-0.79-0.55-1.72-0.55-2.79c0-1.01,0.2-1.94,0.62-2.79c0.43-0.85,1.02-1.58,1.76-2.21
			c0.76-0.61,1.65-1.1,2.69-1.44c1.05-0.35,2.19-0.53,3.43-0.53c0.82,0,1.6,0.06,2.32,0.19c0.73,0.1,1.43,0.33,2.11,0.67
			c0.69,0.32,1.39,0.79,2.07,1.39c0.69,0.6,1.41,1.39,2.16,2.36l-1.81,1.63c-0.94-1.54-2-2.7-3.18-3.45
			c-1.16-0.76-2.41-1.14-3.74-1.14c-0.69,0-1.34,0.09-1.92,0.27c-0.59,0.17-1.09,0.41-1.51,0.72c-0.42,0.29-0.74,0.64-0.97,1.04
			c-0.23,0.4-0.35,0.83-0.35,1.27c0,0.74,0.21,1.39,0.62,1.95c0.42,0.56,0.97,1.06,1.65,1.51c0.68,0.45,1.45,0.87,2.32,1.25
			c0.86,0.37,1.75,0.76,2.66,1.16c0.91,0.38,1.8,0.8,2.67,1.25c0.87,0.45,1.64,0.97,2.32,1.58c0.68,0.59,1.23,1.28,1.65,2.07
			c0.42,0.77,0.62,1.68,0.62,2.71c0,1.05-0.2,2.05-0.6,2.98c-0.38,0.91-0.97,1.71-1.76,2.39c-0.78,0.67-1.78,1.19-2.99,1.58
			c-1.19,0.38-2.58,0.58-4.17,0.58c-0.73,0-1.47-0.06-2.25-0.19c-0.76-0.1-1.53-0.33-2.32-0.65c-0.77-0.34-1.55-0.81-2.34-1.42
			c-0.77-0.61-1.53-1.39-2.28-2.37l2.02-1.84c0.6,0.85,1.18,1.58,1.74,2.18c0.56,0.59,1.11,1.08,1.67,1.46
			c0.57,0.37,1.16,0.65,1.76,0.84C291.3-1177.55,291.97-1177.46,292.68-1177.46L292.68-1177.46z"/>
		<path id="path4674" class="st0" d="M319.92-1175.7c-1.69,0-3.27-0.32-4.76-0.95c-1.47-0.63-2.76-1.49-3.87-2.57
			c-1.1-1.1-1.97-2.37-2.62-3.83c-0.64-1.47-0.95-3.04-0.95-4.71c0-2,0.29-3.84,0.88-5.55c0.59-1.7,1.42-3.17,2.48-4.41
			c1.07-1.23,2.35-2.2,3.85-2.89c1.52-0.7,3.2-1.05,5.04-1.05c1.64,0,3.14,0.29,4.5,0.86c1.36,0.57,2.53,1.34,3.5,2.32
			c0.98,0.96,1.73,2.08,2.27,3.34c0.55,1.27,0.82,2.6,0.82,4h-18.59c0,1.67,0.22,3.23,0.65,4.66c0.44,1.42,1.04,2.65,1.81,3.69
			c0.77,1.04,1.71,1.85,2.79,2.44c1.08,0.59,2.26,0.88,3.55,0.88c1.08,0,2.12-0.17,3.11-0.51c0.99-0.35,1.89-0.81,2.69-1.37
			c0.81-0.58,1.49-1.22,2.04-1.94c0.58-0.74,0.97-1.5,1.2-2.28l1.42,0.63c-0.35,1.29-0.94,2.49-1.74,3.62
			c-0.79,1.12-1.72,2.09-2.79,2.92c-1.05,0.84-2.21,1.5-3.48,2C322.47-1175.94,321.21-1175.7,319.92-1175.7L319.92-1175.7z
			 M324.87-1193.15c0-0.94-0.17-1.82-0.51-2.62c-0.32-0.82-0.78-1.53-1.37-2.11c-0.57-0.6-1.26-1.07-2.05-1.42
			c-0.77-0.34-1.61-0.51-2.5-0.51c-0.74,0-1.47,0.17-2.16,0.51c-0.68,0.34-1.29,0.81-1.83,1.39c-0.53,0.59-0.97,1.29-1.32,2.11
			c-0.34,0.81-0.55,1.68-0.63,2.62L324.87-1193.15L324.87-1193.15z"/>
		<path id="path4676" class="st0" d="M356.41-1176.34h-4.96v-3.41c-0.59,0.45-1.17,0.9-1.74,1.37c-0.56,0.47-1.17,0.89-1.83,1.28
			c-0.65,0.38-1.37,0.69-2.18,0.92c-0.79,0.25-1.71,0.38-2.76,0.38c-0.98,0-1.86-0.16-2.65-0.49c-0.79-0.31-1.46-0.74-2.01-1.3
			c-0.56-0.55-0.98-1.21-1.28-1.98c-0.29-0.76-0.44-1.58-0.44-2.46c0-1.06,0.2-2.02,0.62-2.87c0.44-0.87,1.01-1.64,1.74-2.32
			c0.74-0.68,1.6-1.28,2.57-1.81c0.99-0.52,2.03-1,3.14-1.41c1.09-0.42,2.23-0.79,3.38-1.11c1.18-0.33,2.32-0.63,3.44-0.91v-1.55
			c0-1.13-0.12-2.08-0.35-2.85c-0.22-0.79-0.53-1.43-0.95-1.9c-0.42-0.48-0.92-0.82-1.53-1.02c-0.59-0.21-1.26-0.32-2-0.32
			c-0.84,0-1.52,0.11-2.04,0.32c-0.53,0.21-0.95,0.5-1.25,0.86c-0.29,0.35-0.5,0.76-0.6,1.22c-0.11,0.45-0.16,0.91-0.16,1.37
			c0,0.43-0.04,0.85-0.12,1.25c-0.06,0.41-0.18,0.76-0.37,1.07c-0.18,0.29-0.44,0.54-0.77,0.72c-0.31,0.19-0.71,0.28-1.2,0.28
			c-0.39,0-0.74-0.07-1.07-0.21c-0.31-0.15-0.58-0.37-0.81-0.62c-0.23-0.27-0.41-0.58-0.53-0.93c-0.12-0.36-0.19-0.74-0.19-1.16
			c0-0.82,0.27-1.58,0.81-2.3c0.54-0.71,1.27-1.33,2.18-1.83c0.91-0.52,1.98-0.94,3.2-1.23c1.22-0.31,2.51-0.46,3.85-0.46
			c1.64,0,3.03,0.16,4.16,0.49c1.13,0.3,2.04,0.75,2.74,1.32c0.7,0.57,1.2,1.27,1.51,2.09c0.31,0.82,0.47,1.72,0.47,2.71V-1176.34
			L356.41-1176.34z M351.44-1190.87c-0.71,0.23-1.46,0.5-2.23,0.79c-0.76,0.29-1.51,0.63-2.25,0.99c-0.73,0.35-1.42,0.75-2.09,1.19
			c-0.67,0.42-1.25,0.87-1.77,1.34c-0.49,0.48-0.89,0.99-1.18,1.53c-0.29,0.54-0.44,1.11-0.44,1.7c0,0.6,0.11,1.18,0.33,1.74
			c0.23,0.54,0.53,1.02,0.91,1.44c0.37,0.4,0.79,0.73,1.27,0.97c0.5,0.24,1,0.35,1.53,0.35c0.55,0,1.08-0.07,1.58-0.21
			c0.51-0.16,0.99-0.36,1.46-0.61c0.48-0.24,0.95-0.53,1.42-0.85c0.48-0.35,0.97-0.7,1.46-1.07V-1190.87L351.44-1190.87z"/>
		<path id="path4678" class="st0" d="M364.63-1201.24h4.92v4.71c0.48-0.7,1-1.36,1.55-2c0.55-0.63,1.13-1.19,1.74-1.67
			c0.6-0.48,1.22-0.86,1.86-1.14c0.65-0.29,1.31-0.42,1.97-0.42c0.54,0,1.04,0.08,1.51,0.25c0.47,0.16,0.87,0.37,1.21,0.65
			c0.35,0.27,0.63,0.58,0.83,0.95c0.21,0.35,0.3,0.73,0.3,1.13c0,0.81-0.26,1.42-0.77,1.84c-0.49,0.4-1.19,0.6-2.08,0.6
			c-0.56,0-1.01-0.05-1.35-0.17c-0.33-0.12-0.62-0.25-0.9-0.4c-0.26-0.15-0.53-0.29-0.81-0.39c-0.28-0.12-0.63-0.18-1.04-0.18
			c-0.33,0-0.66,0.1-1,0.3c-0.32,0.18-0.65,0.45-1,0.81c-0.32,0.34-0.66,0.75-1,1.23c-0.34,0.47-0.69,0.98-1.02,1.53v17.27h-4.92
			L364.63-1201.24L364.63-1201.24z"/>
		<path id="path4680" class="st0" d="M395.38-1175.7c-1.62,0-3.15-0.32-4.59-0.95c-1.42-0.65-2.67-1.53-3.73-2.64
			c-1.06-1.11-1.89-2.42-2.51-3.92c-0.6-1.5-0.9-3.1-0.9-4.8c0-1.89,0.33-3.66,1-5.31c0.68-1.66,1.61-3.1,2.78-4.34
			c1.18-1.23,2.54-2.21,4.11-2.92c1.57-0.71,3.24-1.07,5.04-1.07c1.39,0,2.68,0.16,3.85,0.47c1.18,0.3,2.19,0.71,3.04,1.25
			c0.85,0.53,1.51,1.15,1.99,1.88c0.48,0.73,0.72,1.5,0.72,2.34c0,0.37-0.1,0.73-0.3,1.07c-0.19,0.32-0.43,0.61-0.74,0.86
			c-0.31,0.25-0.67,0.45-1.07,0.61c-0.39,0.14-0.78,0.2-1.18,0.2c-0.45,0-0.85-0.08-1.21-0.23c-0.36-0.17-0.67-0.38-0.93-0.63
			c-0.25-0.26-0.44-0.55-0.58-0.88c-0.12-0.33-0.19-0.66-0.19-1c0-0.57-0.06-1.1-0.18-1.6c-0.13-0.51-0.34-0.95-0.65-1.3
			c-0.31-0.37-0.73-0.66-1.27-0.86c-0.55-0.21-1.23-0.32-2.07-0.32c-1.14,0-2.15,0.23-3.04,0.7c-0.9,0.45-1.66,1.06-2.27,1.83
			c-0.62,0.77-1.09,1.69-1.41,2.73c-0.33,1.04-0.49,2.15-0.49,3.32c0,1.6,0.21,3.1,0.63,4.53c0.41,1.43,1,2.67,1.76,3.74
			c0.76,1.07,1.67,1.92,2.73,2.56c1.07,0.62,2.26,0.92,3.58,0.92c1.15,0,2.16-0.17,3.01-0.53c0.85-0.37,1.59-0.87,2.21-1.49
			c0.63-0.62,1.17-1.34,1.62-2.16c0.45-0.83,0.85-1.69,1.21-2.6l1.48,0.6c-0.41,1.57-0.98,2.96-1.69,4.2
			c-0.71,1.24-1.56,2.28-2.53,3.13c-0.96,0.85-2.05,1.5-3.28,1.95C398.12-1175.92,396.8-1175.7,395.38-1175.7L395.38-1175.7z"/>
		<path id="path4682" class="st0" d="M418.08-1196.74c1.51-1.69,3.07-2.94,4.69-3.78c1.63-0.85,3.28-1.27,4.97-1.27
			c0.87,0,1.68,0.19,2.44,0.6c0.77,0.38,1.43,0.92,1.99,1.6c0.57,0.68,1.02,1.49,1.35,2.42c0.33,0.91,0.49,1.89,0.49,2.92v17.89
			h-4.95v-17.05c0-1.64-0.37-2.89-1.11-3.74c-0.74-0.85-1.7-1.28-2.88-1.28c-0.53,0-1.09,0.08-1.67,0.25
			c-0.59,0.17-1.18,0.42-1.78,0.75c-0.6,0.31-1.21,0.69-1.81,1.14c-0.59,0.43-1.16,0.92-1.72,1.46v18.47h-4.95v-36.27l3.53-1.41
			h1.41V-1196.74L418.08-1196.74z"/>
		<path id="path4684" class="st0" d="M454.4-1208.63h5.43v32.33h-5.43V-1208.63z"/>
		<path id="path4686" class="st0" d="M468.4-1201.24h4.94v4.55c1.51-1.69,3.06-2.95,4.69-3.78c1.62-0.85,3.28-1.28,4.97-1.28
			c0.86,0,1.67,0.21,2.43,0.6c0.77,0.38,1.44,0.92,2,1.6c0.58,0.67,1.02,1.48,1.34,2.41c0.34,0.92,0.51,1.89,0.51,2.92v17.89h-4.97
			v-17.05c0-1.64-0.37-2.89-1.12-3.74c-0.74-0.85-1.69-1.27-2.85-1.27c-0.52,0-1.08,0.08-1.67,0.25c-0.59,0.17-1.18,0.42-1.79,0.74
			c-0.6,0.31-1.2,0.69-1.81,1.14c-0.6,0.43-1.19,0.92-1.74,1.46v18.47h-4.94V-1201.24L468.4-1201.24z"/>
		<path id="path4688" class="st0" d="M504.6-1177.46c0.68,0,1.31-0.1,1.88-0.29c0.57-0.22,1.06-0.5,1.46-0.84
			c0.42-0.34,0.74-0.73,0.97-1.18c0.23-0.45,0.35-0.9,0.35-1.37c0-0.76-0.2-1.42-0.58-1.97c-0.37-0.58-0.87-1.08-1.51-1.53
			c-0.62-0.46-1.33-0.89-2.13-1.25c-0.8-0.37-1.62-0.75-2.46-1.14c-0.82-0.4-1.63-0.83-2.43-1.27c-0.8-0.47-1.53-0.99-2.16-1.57
			c-0.62-0.6-1.12-1.29-1.51-2.07c-0.37-0.79-0.56-1.72-0.56-2.79c0-1.01,0.21-1.94,0.63-2.79c0.43-0.85,1.02-1.58,1.76-2.21
			c0.76-0.61,1.65-1.1,2.69-1.44c1.05-0.35,2.2-0.53,3.44-0.53c0.82,0,1.59,0.06,2.32,0.19c0.73,0.1,1.43,0.33,2.11,0.67
			c0.7,0.32,1.38,0.79,2.07,1.39c0.69,0.6,1.41,1.39,2.16,2.36l-1.81,1.63c-0.94-1.54-2-2.7-3.18-3.45
			c-1.16-0.76-2.4-1.14-3.73-1.14c-0.7,0-1.34,0.09-1.93,0.27c-0.58,0.17-1.09,0.41-1.5,0.72c-0.42,0.29-0.75,0.64-0.98,1.04
			c-0.23,0.4-0.35,0.83-0.35,1.27c0,0.74,0.21,1.39,0.63,1.95c0.42,0.56,0.97,1.06,1.65,1.51c0.68,0.45,1.46,0.87,2.32,1.25
			c0.87,0.37,1.76,0.76,2.67,1.16c0.91,0.38,1.8,0.8,2.67,1.25c0.86,0.45,1.64,0.97,2.32,1.58c0.68,0.59,1.23,1.28,1.65,2.07
			c0.42,0.77,0.63,1.68,0.63,2.71c0,1.05-0.2,2.05-0.6,2.98c-0.39,0.91-0.97,1.71-1.76,2.39c-0.79,0.67-1.79,1.19-3,1.58
			c-1.19,0.38-2.58,0.58-4.18,0.58c-0.73,0-1.48-0.06-2.25-0.19c-0.76-0.1-1.54-0.33-2.32-0.65c-0.77-0.34-1.55-0.81-2.34-1.42
			c-0.77-0.61-1.53-1.39-2.27-2.37l2.02-1.84c0.6,0.85,1.18,1.58,1.74,2.18c0.55,0.59,1.12,1.08,1.67,1.46
			c0.57,0.37,1.15,0.65,1.76,0.84C503.22-1177.55,503.89-1177.46,504.6-1177.46L504.6-1177.46z"/>
		<path id="path4690" class="st0" d="M534.08-1179.55c-0.67,1.15-1.54,2.05-2.64,2.71c-1.1,0.67-2.45,1-4.06,1
			c-0.84,0-1.57-0.14-2.19-0.41c-0.6-0.28-1.11-0.67-1.51-1.19c-0.4-0.51-0.7-1.12-0.9-1.83c-0.19-0.71-0.28-1.5-0.28-2.37v-17.57
			h-4.32v-1.23c1.4,0,2.54-0.25,3.44-0.74c0.9-0.5,1.63-1.19,2.21-2.04c0.57-0.87,1.02-1.86,1.35-2.99c0.32-1.13,0.61-2.33,0.86-3.6
			h1.41v8.52h5.6v2.09h-5.6v17.57c0,0.37,0.08,0.72,0.21,1.04c0.14,0.33,0.33,0.61,0.56,0.86c0.25,0.23,0.54,0.42,0.85,0.56
			c0.34,0.13,0.7,0.21,1.07,0.21c0.55,0,1.06-0.13,1.51-0.39c0.47-0.28,0.87-0.62,1.2-1.02L534.08-1179.55L534.08-1179.55z"/>
		<path id="path4692" class="st0" d="M541.31-1213.93c0.39,0,0.75,0.07,1.09,0.21c0.36,0.12,0.66,0.3,0.91,0.53
			c0.26,0.22,0.47,0.48,0.63,0.79c0.16,0.29,0.23,0.61,0.23,0.95c0,0.33-0.08,0.66-0.23,0.97c-0.15,0.29-0.36,0.55-0.63,0.79
			c-0.25,0.21-0.55,0.39-0.91,0.53c-0.34,0.12-0.7,0.19-1.09,0.19c-0.39,0-0.75-0.06-1.09-0.19c-0.34-0.14-0.65-0.32-0.91-0.53
			c-0.24-0.24-0.45-0.5-0.6-0.79c-0.15-0.31-0.23-0.64-0.23-0.97c0-0.34,0.07-0.66,0.23-0.95c0.16-0.31,0.36-0.57,0.6-0.79
			c0.26-0.23,0.57-0.41,0.91-0.53C540.56-1213.86,540.92-1213.93,541.31-1213.93L541.31-1213.93z M538.9-1200.26l3.48-1.42h1.44
			v25.43h-4.92V-1200.26L538.9-1200.26z"/>
		<path id="path4694" class="st0" d="M564.77-1179.55c-0.67,1.15-1.55,2.05-2.65,2.71c-1.1,0.67-2.45,1-4.06,1
			c-0.83,0-1.56-0.14-2.18-0.41c-0.6-0.28-1.1-0.67-1.51-1.19c-0.4-0.51-0.7-1.12-0.91-1.83c-0.18-0.71-0.28-1.5-0.28-2.37v-17.57
			h-4.32v-1.23c1.39,0,2.54-0.25,3.44-0.74c0.9-0.5,1.63-1.19,2.21-2.04c0.57-0.87,1.02-1.86,1.34-2.99
			c0.32-1.13,0.61-2.33,0.86-3.6h1.42v8.52h5.59v2.09h-5.59v17.57c0,0.37,0.07,0.72,0.21,1.04c0.14,0.33,0.33,0.61,0.56,0.86
			c0.25,0.23,0.54,0.42,0.86,0.56c0.34,0.13,0.7,0.21,1.07,0.21c0.55,0,1.06-0.13,1.51-0.39c0.46-0.28,0.86-0.62,1.2-1.02
			L564.77-1179.55L564.77-1179.55z"/>
		<path id="path4696" class="st0" d="M574.29-1201.24v17.73c0,0.62,0.14,1.21,0.42,1.77c0.3,0.54,0.69,1.01,1.18,1.41
			c0.49,0.4,1.08,0.73,1.74,0.98c0.66,0.23,1.38,0.35,2.14,0.35c0.49,0,1.02-0.1,1.58-0.3c0.56-0.21,1.1-0.51,1.62-0.88
			c0.54-0.37,1.05-0.8,1.51-1.28c0.47-0.49,0.87-1.02,1.18-1.58v-18.19h4.94v24.92h-4.94v-4.66c-0.43,0.71-0.99,1.39-1.65,2.02
			c-0.65,0.63-1.36,1.19-2.14,1.67c-0.76,0.46-1.55,0.83-2.37,1.09c-0.8,0.28-1.57,0.42-2.29,0.42c-1.09,0-2.11-0.2-3.06-0.6
			c-0.96-0.42-1.8-0.97-2.51-1.67c-0.71-0.69-1.28-1.51-1.7-2.43c-0.4-0.95-0.6-1.95-0.6-3.02v-17.73H574.29L574.29-1201.24z"/>
		<path id="path4698" class="st0" d="M611.22-1179.55c-0.67,1.15-1.54,2.05-2.65,2.71c-1.09,0.67-2.45,1-4.06,1
			c-0.83,0-1.56-0.14-2.18-0.41c-0.6-0.28-1.1-0.67-1.51-1.19c-0.4-0.51-0.7-1.12-0.9-1.83c-0.19-0.71-0.28-1.5-0.28-2.37v-17.57
			h-4.32v-1.23c1.4,0,2.54-0.25,3.44-0.74c0.9-0.5,1.63-1.19,2.21-2.04c0.57-0.87,1.03-1.86,1.34-2.99c0.33-1.13,0.61-2.33,0.86-3.6
			h1.41v8.52h5.6v2.09h-5.6v17.57c0,0.37,0.08,0.72,0.21,1.04c0.14,0.33,0.32,0.61,0.56,0.86c0.24,0.23,0.53,0.42,0.86,0.56
			c0.34,0.13,0.69,0.21,1.06,0.21c0.56,0,1.06-0.13,1.51-0.39c0.46-0.28,0.86-0.62,1.21-1.02L611.22-1179.55L611.22-1179.55z"/>
		<path id="path4700" class="st0" d="M626.86-1175.7c-1.68,0-3.27-0.32-4.76-0.95c-1.47-0.63-2.76-1.49-3.87-2.57
			c-1.1-1.1-1.97-2.37-2.62-3.83c-0.64-1.47-0.95-3.04-0.95-4.71c0-2,0.29-3.84,0.88-5.55c0.59-1.7,1.41-3.17,2.48-4.41
			c1.06-1.23,2.35-2.2,3.85-2.89c1.52-0.7,3.2-1.05,5.04-1.05c1.64,0,3.14,0.29,4.5,0.86c1.36,0.57,2.53,1.34,3.5,2.32
			c0.98,0.96,1.74,2.08,2.28,3.34c0.54,1.27,0.81,2.6,0.81,4h-18.59c0,1.67,0.21,3.23,0.65,4.66c0.43,1.42,1.03,2.65,1.81,3.69
			c0.78,1.04,1.7,1.85,2.78,2.44c1.08,0.59,2.27,0.88,3.55,0.88c1.09,0,2.12-0.17,3.11-0.51c0.99-0.35,1.88-0.81,2.69-1.37
			c0.8-0.58,1.49-1.22,2.04-1.94c0.57-0.74,0.98-1.5,1.21-2.28l1.41,0.63c-0.36,1.29-0.94,2.49-1.74,3.62
			c-0.79,1.12-1.73,2.09-2.78,2.92c-1.05,0.84-2.22,1.5-3.48,2C629.41-1175.94,628.14-1175.7,626.86-1175.7L626.86-1175.7z
			 M631.8-1193.15c0-0.94-0.17-1.82-0.51-2.62c-0.33-0.82-0.78-1.53-1.37-2.11c-0.58-0.6-1.26-1.07-2.04-1.42
			c-0.78-0.34-1.61-0.51-2.5-0.51c-0.75,0-1.46,0.17-2.16,0.51c-0.68,0.34-1.29,0.81-1.83,1.39c-0.53,0.59-0.97,1.29-1.32,2.11
			c-0.34,0.81-0.55,1.68-0.63,2.62L631.8-1193.15L631.8-1193.15z"/>
		<path id="path4702" class="st0" d="M671.48-1201.24v2.09h-6.66v22.83h-4.97v-22.83h-5.22v-2.09h5.22v-2.92
			c0-1.36,0.24-2.64,0.72-3.83c0.5-1.21,1.16-2.25,2-3.13c0.83-0.9,1.81-1.61,2.95-2.12c1.12-0.5,2.33-0.76,3.61-0.76
			c1.11,0,2.07,0.12,2.92,0.35c0.87,0.22,1.59,0.51,2.19,0.91c0.59,0.37,1.04,0.82,1.35,1.34c0.31,0.51,0.47,1.06,0.47,1.65
			c0,0.37-0.07,0.71-0.21,1c-0.14,0.28-0.32,0.52-0.55,0.72c-0.24,0.2-0.5,0.36-0.81,0.47c-0.32,0.11-0.64,0.16-0.98,0.16
			c-0.6,0-1.07-0.12-1.39-0.34c-0.32-0.23-0.55-0.53-0.73-0.88c-0.17-0.36-0.3-0.73-0.41-1.14c-0.1-0.42-0.23-0.81-0.42-1.16
			c-0.19-0.36-0.46-0.65-0.82-0.88c-0.34-0.24-0.83-0.35-1.48-0.35c-0.5,0-0.96,0.14-1.4,0.44c-0.42,0.28-0.78,0.65-1.09,1.12
			c-0.29,0.46-0.53,1-0.7,1.59c-0.17,0.61-0.25,1.23-0.25,1.86v5.92H671.48L671.48-1201.24z"/>
		<path id="path4704" class="st0" d="M689.15-1175.7c-1.91,0-3.67-0.33-5.28-1c-1.61-0.66-3.01-1.57-4.18-2.72
			c-1.16-1.15-2.07-2.48-2.74-4.02c-0.64-1.54-0.98-3.19-0.98-4.94c0-1.85,0.33-3.56,0.98-5.17c0.67-1.63,1.58-3.03,2.74-4.22
			c1.18-1.21,2.57-2.16,4.18-2.85c1.62-0.7,3.38-1.05,5.28-1.05c1.91,0,3.65,0.32,5.24,0.95c1.61,0.64,3.01,1.51,4.18,2.62
			c1.17,1.1,2.09,2.4,2.74,3.9c0.66,1.48,1,3.07,1,4.78c0,1.89-0.34,3.66-1,5.33c-0.65,1.66-1.57,3.12-2.74,4.37
			c-1.18,1.24-2.57,2.22-4.18,2.95C692.8-1176.05,691.05-1175.7,689.15-1175.7z M690.08-1177.53c0.97,0,1.86-0.25,2.67-0.74
			c0.82-0.51,1.51-1.18,2.11-2.02c0.6-0.86,1.06-1.84,1.38-2.97c0.33-1.13,0.49-2.33,0.49-3.58c0-1.81-0.15-3.49-0.47-5.05
			c-0.31-1.58-0.8-2.96-1.5-4.13c-0.69-1.17-1.6-2.09-2.71-2.76c-1.12-0.68-2.49-1.02-4.11-1.02c-0.84,0-1.64,0.24-2.41,0.72
			c-0.77,0.47-1.46,1.14-2.06,1.97c-0.58,0.84-1.06,1.81-1.42,2.93c-0.35,1.11-0.53,2.29-0.53,3.55c0,1.81,0.19,3.51,0.58,5.11
			c0.39,1.59,0.94,2.98,1.67,4.17c0.72,1.18,1.62,2.11,2.69,2.81C687.53-1177.87,688.73-1177.53,690.08-1177.53L690.08-1177.53z"/>
		<path id="path4706" class="st0" d="M708.68-1201.24h4.92v4.71c0.48-0.7,0.99-1.36,1.55-2c0.55-0.63,1.13-1.19,1.74-1.67
			c0.6-0.48,1.23-0.86,1.86-1.14c0.65-0.29,1.3-0.42,1.97-0.42c0.54,0,1.05,0.08,1.51,0.25c0.46,0.16,0.86,0.37,1.21,0.65
			c0.35,0.27,0.63,0.58,0.83,0.95c0.2,0.35,0.3,0.73,0.3,1.13c0,0.81-0.25,1.42-0.76,1.84c-0.5,0.4-1.19,0.6-2.09,0.6
			c-0.55,0-1.01-0.05-1.34-0.17c-0.33-0.12-0.64-0.25-0.92-0.4c-0.25-0.15-0.53-0.29-0.81-0.39c-0.28-0.12-0.62-0.18-1.04-0.18
			c-0.33,0-0.66,0.1-0.99,0.3c-0.33,0.18-0.66,0.45-1.01,0.81c-0.32,0.34-0.66,0.75-0.99,1.23c-0.34,0.47-0.69,0.98-1.02,1.53v17.27
			h-4.92V-1201.24L708.68-1201.24z"/>
		<path id="path4708" class="st0" d="M747.4-1192.41c0,2.28,0.35,4.31,1.03,6.11c0.68,1.79,1.62,3.32,2.81,4.57
			c1.19,1.24,2.6,2.19,4.22,2.86c1.64,0.65,3.41,0.97,5.32,0.97c1.12,0,2.22-0.22,3.27-0.65c1.05-0.45,2.03-1.02,2.92-1.71
			c0.91-0.71,1.72-1.51,2.44-2.39c0.71-0.9,1.29-1.81,1.75-2.72l2.28,1.46c-0.67,1.08-1.46,2.13-2.36,3.13
			c-0.91,1-1.94,1.89-3.13,2.67c-1.19,0.76-2.54,1.37-4.04,1.83c-1.5,0.46-3.17,0.7-5.04,0.7c-1.78,0-3.46-0.21-5.03-0.63
			c-1.58-0.4-3.04-0.97-4.37-1.69c-1.31-0.74-2.49-1.63-3.55-2.67c-1.04-1.04-1.92-2.17-2.64-3.41c-0.72-1.25-1.26-2.59-1.65-4.01
			c-0.39-1.43-0.58-2.89-0.58-4.41c0-1.51,0.19-2.98,0.58-4.41c0.41-1.44,0.97-2.78,1.7-4.04c0.75-1.27,1.65-2.42,2.72-3.48
			c1.06-1.05,2.26-1.95,3.59-2.69c1.35-0.76,2.82-1.35,4.41-1.77c1.59-0.42,3.29-0.63,5.11-0.63c1.71,0,3.29,0.23,4.73,0.7
			c1.45,0.46,2.78,1.08,3.97,1.86c1.2,0.76,2.27,1.63,3.2,2.65c0.93,1,1.73,2.05,2.39,3.13l-2.34,1.57
			c-1.37-2.61-2.88-4.53-4.55-5.76c-1.67-1.22-3.59-1.83-5.76-1.83c-1.88,0-3.62,0.34-5.25,1.02c-1.62,0.68-3.04,1.66-4.24,2.93
			c-1.21,1.27-2.17,2.81-2.86,4.62C747.76-1196.72,747.4-1194.67,747.4-1192.41L747.4-1192.41z"/>
		<path id="path4710" class="st0" d="M792.79-1175.7c-1.9,0-3.66-0.33-5.28-1c-1.62-0.66-3-1.57-4.18-2.72
			c-1.16-1.15-2.08-2.48-2.73-4.02c-0.66-1.54-0.98-3.19-0.98-4.94c0-1.85,0.32-3.56,0.98-5.17c0.66-1.63,1.57-3.03,2.73-4.22
			c1.17-1.21,2.56-2.16,4.18-2.85c1.62-0.7,3.38-1.05,5.28-1.05c1.91,0,3.66,0.32,5.25,0.95c1.6,0.64,3,1.51,4.17,2.62
			c1.17,1.1,2.08,2.4,2.74,3.9c0.66,1.48,1,3.07,1,4.78c0,1.89-0.34,3.66-1,5.33c-0.65,1.66-1.56,3.12-2.74,4.37
			c-1.18,1.24-2.57,2.22-4.17,2.95C796.44-1176.05,794.7-1175.7,792.79-1175.7z M793.72-1177.53c0.98,0,1.87-0.25,2.67-0.74
			c0.82-0.51,1.52-1.18,2.1-2.02c0.6-0.86,1.07-1.84,1.39-2.97c0.33-1.13,0.49-2.33,0.49-3.58c0-1.81-0.15-3.49-0.46-5.05
			c-0.3-1.58-0.81-2.96-1.51-4.13c-0.69-1.17-1.6-2.09-2.71-2.76c-1.11-0.68-2.48-1.02-4.11-1.02c-0.83,0-1.64,0.24-2.41,0.72
			c-0.78,0.47-1.46,1.14-2.07,1.97c-0.59,0.84-1.07,1.81-1.42,2.93c-0.35,1.11-0.53,2.29-0.53,3.55c0,1.81,0.19,3.51,0.58,5.11
			c0.39,1.59,0.94,2.98,1.67,4.17c0.72,1.18,1.62,2.11,2.69,2.81C791.17-1177.87,792.37-1177.53,793.72-1177.53L793.72-1177.53z"/>
		<path id="path4712" class="st0" d="M812.34-1201.24h4.95v4.66c0.63-0.69,1.34-1.35,2.13-1.97c0.8-0.61,1.63-1.17,2.46-1.65
			c0.85-0.48,1.7-0.86,2.55-1.14c0.85-0.29,1.65-0.42,2.42-0.42c0.74,0,1.49,0.13,2.22,0.4c0.76,0.27,1.46,0.63,2.08,1.11
			c0.66,0.46,1.21,1.02,1.67,1.67c0.46,0.63,0.77,1.32,0.9,2.08c0.42-0.72,0.98-1.4,1.7-2.04c0.72-0.65,1.53-1.21,2.41-1.67
			c0.89-0.48,1.81-0.86,2.78-1.14c0.98-0.29,1.94-0.42,2.88-0.42c0.94,0,1.82,0.21,2.64,0.62c0.84,0.42,1.56,0.98,2.19,1.7
			c0.61,0.69,1.1,1.52,1.45,2.49c0.36,0.94,0.54,1.94,0.54,3.01v17.61h-4.97v-16.89c0-0.7-0.12-1.35-0.36-1.98
			c-0.24-0.63-0.56-1.18-0.96-1.64c-0.41-0.48-0.88-0.87-1.41-1.14c-0.55-0.28-1.12-0.42-1.73-0.42c-0.67,0-1.38,0.09-2.09,0.28
			c-0.7,0.19-1.36,0.44-1.99,0.77c-0.64,0.33-1.22,0.71-1.75,1.13c-0.52,0.44-0.94,0.89-1.25,1.37v18.52h-4.94v-16.89
			c0-0.7-0.12-1.35-0.37-1.98c-0.23-0.63-0.55-1.18-0.96-1.64c-0.43-0.48-0.91-0.87-1.45-1.14c-0.54-0.28-1.1-0.42-1.71-0.42
			c-0.63,0-1.3,0.1-1.97,0.3c-0.67,0.19-1.33,0.44-1.97,0.77c-0.64,0.32-1.24,0.7-1.79,1.13c-0.54,0.42-1,0.86-1.37,1.34v18.52
			h-4.95V-1201.24z"/>
		<path id="path4714" class="st0" d="M857.66-1201.24h4.95v5.08c0.5-0.64,1.04-1.27,1.64-1.92c0.62-0.67,1.3-1.27,2.04-1.81
			c0.75-0.54,1.56-0.98,2.44-1.32c0.9-0.35,1.88-0.53,2.95-0.53c1.48,0,2.81,0.31,4.01,0.93c1.21,0.62,2.24,1.46,3.09,2.53
			c0.84,1.04,1.5,2.29,1.97,3.71c0.46,1.42,0.7,2.94,0.7,4.55c0,2.06-0.29,3.96-0.86,5.71c-0.57,1.73-1.38,3.23-2.43,4.5
			c-1.05,1.27-2.33,2.26-3.83,2.97c-1.5,0.71-3.19,1.06-5.06,1.06c-0.7,0-1.33-0.04-1.92-0.11c-0.58-0.07-1.15-0.17-1.7-0.33
			c-0.52-0.14-1.03-0.33-1.52-0.56c-0.49-0.23-1-0.5-1.51-0.83v11.81h-4.95V-1201.24L857.66-1201.24z M862.61-1183.05
			c0,0.74,0.16,1.45,0.49,2.11c0.32,0.67,0.78,1.24,1.36,1.74c0.59,0.48,1.3,0.87,2.12,1.16c0.81,0.28,1.71,0.42,2.69,0.42
			c0.93,0,1.79-0.23,2.6-0.7c0.83-0.47,1.53-1.15,2.13-2.02c0.62-0.87,1.1-1.89,1.45-3.09c0.35-1.2,0.53-2.54,0.53-4.01
			c0-1.84-0.17-3.44-0.49-4.8c-0.32-1.38-0.78-2.52-1.37-3.43c-0.57-0.91-1.25-1.6-2.04-2.04c-0.8-0.45-1.66-0.67-2.61-0.67
			c-0.73,0-1.42,0.11-2.09,0.35c-0.66,0.22-1.27,0.51-1.86,0.88c-0.57,0.37-1.1,0.8-1.6,1.29c-0.5,0.48-0.94,0.98-1.32,1.52
			V-1183.05L862.61-1183.05z"/>
		<path id="path4716" class="st0" d="M892.71-1201.24v17.73c0,0.62,0.13,1.21,0.41,1.77c0.3,0.54,0.69,1.01,1.19,1.41
			c0.49,0.4,1.08,0.73,1.74,0.98c0.66,0.23,1.38,0.35,2.13,0.35c0.49,0,1.02-0.1,1.58-0.3c0.56-0.21,1.1-0.51,1.63-0.88
			c0.54-0.37,1.04-0.8,1.51-1.28c0.48-0.49,0.87-1.02,1.18-1.58v-18.19h4.94v24.92h-4.94v-4.66c-0.43,0.71-0.98,1.39-1.64,2.02
			c-0.65,0.63-1.36,1.19-2.13,1.67c-0.77,0.46-1.55,0.83-2.37,1.09c-0.81,0.28-1.57,0.42-2.3,0.42c-1.08,0-2.1-0.2-3.06-0.6
			c-0.96-0.42-1.79-0.97-2.51-1.67c-0.71-0.69-1.28-1.51-1.69-2.43c-0.41-0.95-0.61-1.95-0.61-3.02v-17.73H892.71L892.71-1201.24z"
			/>
		<path id="path4718" class="st0" d="M929.65-1179.55c-0.67,1.15-1.55,2.05-2.64,2.71c-1.1,0.67-2.46,1-4.06,1
			c-0.84,0-1.56-0.14-2.18-0.41c-0.61-0.28-1.12-0.67-1.51-1.19c-0.4-0.51-0.71-1.12-0.91-1.83c-0.19-0.71-0.28-1.5-0.28-2.37
			v-17.57h-4.31v-1.23c1.39,0,2.54-0.25,3.43-0.74c0.9-0.5,1.63-1.19,2.21-2.04c0.58-0.87,1.02-1.86,1.35-2.99
			c0.33-1.13,0.61-2.33,0.86-3.6h1.42v8.52h5.59v2.09h-5.59v17.57c0,0.37,0.07,0.72,0.21,1.04c0.13,0.33,0.32,0.61,0.55,0.86
			c0.25,0.23,0.54,0.42,0.86,0.56c0.34,0.13,0.7,0.21,1.07,0.21c0.56,0,1.06-0.13,1.5-0.39c0.47-0.28,0.87-0.62,1.21-1.02
			L929.65-1179.55L929.65-1179.55z"/>
		<path id="path4720" class="st0" d="M952.58-1176.34h-4.97v-3.41c-0.59,0.45-1.17,0.9-1.74,1.37c-0.55,0.47-1.17,0.89-1.83,1.28
			c-0.65,0.38-1.38,0.69-2.18,0.92c-0.79,0.25-1.72,0.38-2.76,0.38c-0.98,0-1.86-0.16-2.65-0.49c-0.79-0.31-1.46-0.74-2.02-1.3
			c-0.55-0.55-0.98-1.21-1.28-1.98c-0.29-0.76-0.44-1.58-0.44-2.46c0-1.06,0.21-2.02,0.63-2.87c0.44-0.87,1.01-1.64,1.74-2.32
			c0.74-0.68,1.6-1.28,2.57-1.81c1-0.52,2.04-1,3.14-1.41c1.1-0.42,2.22-0.79,3.39-1.11c1.18-0.33,2.32-0.63,3.44-0.91v-1.55
			c0-1.13-0.12-2.08-0.35-2.85c-0.21-0.79-0.53-1.43-0.95-1.9c-0.42-0.48-0.93-0.82-1.54-1.02c-0.58-0.21-1.25-0.32-1.99-0.32
			c-0.84,0-1.52,0.11-2.05,0.32c-0.52,0.21-0.93,0.5-1.25,0.86c-0.29,0.35-0.5,0.76-0.6,1.22c-0.11,0.45-0.16,0.91-0.16,1.37
			c0,0.43-0.04,0.85-0.11,1.25c-0.07,0.41-0.19,0.76-0.38,1.07c-0.18,0.29-0.44,0.54-0.76,0.72c-0.31,0.19-0.71,0.28-1.2,0.28
			c-0.39,0-0.75-0.07-1.07-0.21c-0.31-0.15-0.58-0.37-0.81-0.62c-0.24-0.27-0.41-0.58-0.53-0.93c-0.12-0.36-0.19-0.74-0.19-1.16
			c0-0.82,0.27-1.58,0.82-2.3c0.54-0.71,1.27-1.33,2.18-1.83c0.92-0.52,1.98-0.94,3.2-1.23c1.23-0.31,2.51-0.46,3.85-0.46
			c1.64,0,3.03,0.16,4.16,0.49c1.12,0.3,2.04,0.75,2.73,1.32c0.7,0.57,1.19,1.27,1.51,2.09c0.31,0.82,0.46,1.72,0.46,2.71V-1176.34
			L952.58-1176.34z M947.61-1190.87c-0.71,0.23-1.46,0.5-2.23,0.79c-0.75,0.29-1.51,0.63-2.25,0.99c-0.73,0.35-1.42,0.75-2.09,1.19
			c-0.66,0.42-1.25,0.87-1.77,1.34c-0.5,0.48-0.89,0.99-1.18,1.53c-0.29,0.54-0.44,1.11-0.44,1.7c0,0.6,0.11,1.18,0.33,1.74
			c0.24,0.54,0.54,1.02,0.91,1.44c0.37,0.4,0.79,0.73,1.27,0.97c0.5,0.24,1.01,0.35,1.54,0.35c0.55,0,1.08-0.07,1.58-0.21
			c0.51-0.16,0.99-0.36,1.46-0.61c0.48-0.24,0.95-0.53,1.41-0.85c0.48-0.35,0.97-0.7,1.46-1.07V-1190.87L947.61-1190.87z"/>
		<path id="path4722" class="st0" d="M974.06-1179.55c-0.66,1.15-1.54,2.05-2.63,2.71c-1.11,0.67-2.46,1-4.07,1
			c-0.84,0-1.56-0.14-2.18-0.41c-0.61-0.28-1.11-0.67-1.5-1.19c-0.41-0.51-0.71-1.12-0.91-1.83c-0.19-0.71-0.28-1.5-0.28-2.37
			v-17.57h-4.32v-1.23c1.39,0,2.54-0.25,3.44-0.74c0.89-0.5,1.63-1.19,2.2-2.04c0.58-0.87,1.03-1.86,1.35-2.99
			c0.32-1.13,0.61-2.33,0.86-3.6h1.42v8.52h5.59v2.09h-5.59v17.57c0,0.37,0.07,0.72,0.21,1.04c0.14,0.33,0.33,0.61,0.56,0.86
			c0.25,0.23,0.53,0.42,0.86,0.56c0.33,0.13,0.7,0.21,1.06,0.21c0.56,0,1.06-0.13,1.51-0.39c0.46-0.28,0.87-0.62,1.2-1.02
			L974.06-1179.55L974.06-1179.55z"/>
		<path id="path4724" class="st0" d="M981.29-1213.93c0.39,0,0.75,0.07,1.09,0.21c0.36,0.12,0.66,0.3,0.91,0.53
			c0.25,0.22,0.46,0.48,0.62,0.79c0.15,0.29,0.23,0.61,0.23,0.95c0,0.33-0.08,0.66-0.23,0.97c-0.16,0.29-0.37,0.55-0.62,0.79
			c-0.25,0.21-0.55,0.39-0.91,0.53c-0.34,0.12-0.7,0.19-1.09,0.19c-0.38,0-0.75-0.06-1.09-0.19c-0.34-0.14-0.63-0.32-0.91-0.53
			c-0.24-0.24-0.44-0.5-0.59-0.79c-0.16-0.31-0.23-0.64-0.23-0.97c0-0.34,0.07-0.66,0.23-0.95c0.15-0.31,0.35-0.57,0.59-0.79
			c0.27-0.23,0.57-0.41,0.91-0.53C980.55-1213.86,980.92-1213.93,981.29-1213.93L981.29-1213.93z M978.89-1200.26l3.48-1.42h1.44
			v25.43h-4.92V-1200.26L978.89-1200.26z"/>
		<path id="path4726" class="st0" d="M1003.63-1175.7c-1.9,0-3.67-0.33-5.29-1c-1.6-0.66-3-1.57-4.18-2.72
			c-1.16-1.15-2.07-2.48-2.73-4.02c-0.65-1.54-0.98-3.19-0.98-4.94c0-1.85,0.33-3.56,0.98-5.17c0.66-1.63,1.58-3.03,2.73-4.22
			c1.18-1.21,2.58-2.16,4.18-2.85c1.63-0.7,3.4-1.05,5.29-1.05c1.9,0,3.65,0.32,5.24,0.95c1.61,0.64,3,1.51,4.18,2.62
			c1.17,1.1,2.08,2.4,2.73,3.9c0.67,1.48,1.01,3.07,1.01,4.78c0,1.89-0.34,3.66-1.01,5.33c-0.64,1.66-1.55,3.12-2.73,4.37
			c-1.18,1.24-2.57,2.22-4.18,2.95C1007.28-1176.05,1005.53-1175.7,1003.63-1175.7z M1004.55-1177.53c0.98,0,1.87-0.25,2.68-0.74
			c0.82-0.51,1.52-1.18,2.11-2.02c0.6-0.86,1.07-1.84,1.39-2.97c0.32-1.13,0.49-2.33,0.49-3.58c0-1.81-0.16-3.49-0.46-5.05
			c-0.31-1.58-0.82-2.96-1.5-4.13c-0.7-1.17-1.6-2.09-2.72-2.76c-1.11-0.68-2.48-1.02-4.1-1.02c-0.84,0-1.64,0.24-2.42,0.72
			c-0.77,0.47-1.46,1.14-2.06,1.97c-0.58,0.84-1.05,1.81-1.41,2.93c-0.36,1.11-0.53,2.29-0.53,3.55c0,1.81,0.2,3.51,0.57,5.11
			c0.39,1.59,0.94,2.98,1.67,4.17c0.73,1.18,1.63,2.11,2.7,2.81C1002.01-1177.87,1003.22-1177.53,1004.55-1177.53L1004.55-1177.53z"
			/>
		<path id="path4728" class="st0" d="M1023.17-1201.24h4.95v4.55c1.5-1.69,3.06-2.95,4.69-3.78c1.62-0.85,3.28-1.28,4.96-1.28
			c0.87,0,1.68,0.21,2.43,0.6c0.78,0.38,1.44,0.92,2,1.6c0.57,0.67,1.02,1.48,1.35,2.41c0.34,0.92,0.5,1.89,0.5,2.92v17.89h-4.97
			v-17.05c0-1.64-0.37-2.89-1.11-3.74c-0.74-0.85-1.69-1.27-2.85-1.27c-0.52,0-1.08,0.08-1.67,0.25c-0.59,0.17-1.18,0.42-1.79,0.74
			c-0.6,0.31-1.21,0.69-1.8,1.14c-0.61,0.43-1.19,0.92-1.75,1.46v18.47h-4.95V-1201.24L1023.17-1201.24z"/>
		<path id="path4730" class="st0" d="M1069.77-1176.34h-4.97v-3.41c-0.58,0.45-1.16,0.9-1.74,1.37c-0.55,0.47-1.16,0.89-1.83,1.28
			c-0.65,0.38-1.38,0.69-2.18,0.92c-0.79,0.25-1.71,0.38-2.76,0.38c-0.98,0-1.86-0.16-2.65-0.49c-0.79-0.31-1.46-0.74-2.01-1.3
			c-0.57-0.55-0.99-1.21-1.28-1.98c-0.29-0.76-0.44-1.58-0.44-2.46c0-1.06,0.21-2.02,0.63-2.87c0.43-0.87,1.01-1.64,1.75-2.32
			c0.73-0.68,1.6-1.28,2.57-1.81c0.99-0.52,2.03-1,3.13-1.41c1.1-0.42,2.22-0.79,3.39-1.11c1.17-0.33,2.31-0.63,3.42-0.91v-1.55
			c0-1.13-0.11-2.08-0.34-2.85c-0.22-0.79-0.53-1.43-0.95-1.9c-0.42-0.48-0.93-0.82-1.53-1.02c-0.58-0.21-1.25-0.32-2-0.32
			c-0.84,0-1.52,0.11-2.04,0.32c-0.52,0.21-0.95,0.5-1.25,0.86c-0.29,0.35-0.5,0.76-0.61,1.22c-0.11,0.45-0.15,0.91-0.15,1.37
			c0,0.43-0.04,0.85-0.12,1.25c-0.06,0.41-0.19,0.76-0.37,1.07c-0.18,0.29-0.44,0.54-0.76,0.72c-0.31,0.19-0.71,0.28-1.21,0.28
			c-0.39,0-0.75-0.07-1.07-0.21c-0.31-0.15-0.58-0.37-0.82-0.62c-0.23-0.27-0.41-0.58-0.53-0.93c-0.12-0.36-0.18-0.74-0.18-1.16
			c0-0.82,0.27-1.58,0.81-2.3c0.54-0.71,1.27-1.33,2.19-1.83c0.91-0.52,1.98-0.94,3.2-1.23c1.22-0.31,2.51-0.46,3.86-0.46
			c1.63,0,3.02,0.16,4.15,0.49c1.13,0.3,2.04,0.75,2.74,1.32c0.69,0.57,1.2,1.27,1.5,2.09c0.32,0.82,0.47,1.72,0.47,2.71V-1176.34
			L1069.77-1176.34z M1064.8-1190.87c-0.71,0.23-1.46,0.5-2.22,0.79c-0.76,0.29-1.51,0.63-2.26,0.99c-0.72,0.35-1.42,0.75-2.08,1.19
			c-0.67,0.42-1.25,0.87-1.76,1.34c-0.5,0.48-0.89,0.99-1.19,1.53c-0.3,0.54-0.44,1.11-0.44,1.7c0,0.6,0.11,1.18,0.32,1.74
			c0.23,0.54,0.53,1.02,0.9,1.44c0.38,0.4,0.8,0.73,1.28,0.97c0.5,0.24,1,0.35,1.54,0.35c0.55,0,1.08-0.07,1.57-0.21
			c0.51-0.16,1-0.36,1.47-0.61c0.47-0.24,0.95-0.53,1.41-0.85c0.48-0.35,0.97-0.7,1.46-1.07V-1190.87L1064.8-1190.87z"/>
		<path id="path4732" class="st0" d="M1083.17-1176.34h-4.94v-36.27l3.53-1.42h1.41V-1176.34L1083.17-1176.34z"/>
		<path id="path4734" class="st0" d="M1112.69-1177.62c0.8,0,1.59-0.11,2.37-0.33c0.79-0.21,1.49-0.54,2.08-0.97
			c0.63-0.43,1.12-0.95,1.49-1.57c0.38-0.64,0.56-1.36,0.56-2.18c0-0.99-0.26-1.86-0.77-2.62c-0.51-0.78-1.19-1.49-2.02-2.14
			c-0.81-0.65-1.76-1.25-2.83-1.81c-1.07-0.58-2.16-1.15-3.27-1.72c-1.1-0.57-2.18-1.17-3.25-1.79c-1.08-0.63-2.02-1.32-2.86-2.08
			c-0.81-0.77-1.48-1.63-1.99-2.57c-0.51-0.96-0.77-2.06-0.77-3.3c0-1.24,0.23-2.38,0.7-3.44c0.47-1.06,1.15-1.98,2.04-2.76
			c0.9-0.77,2-1.37,3.29-1.81c1.32-0.45,2.83-0.67,4.52-0.67c3.07,0,5.48,0.64,7.25,1.93c1.78,1.28,3.06,3.14,3.85,5.57l-2.79,1.27
			c-0.33-0.99-0.73-1.9-1.25-2.71c-0.5-0.82-1.1-1.52-1.82-2.11c-0.69-0.59-1.5-1.04-2.41-1.34c-0.91-0.33-1.95-0.49-3.08-0.49
			c-1.03,0-1.92,0.15-2.7,0.44c-0.75,0.28-1.39,0.65-1.9,1.12c-0.5,0.44-0.88,0.96-1.15,1.55c-0.25,0.57-0.36,1.16-0.36,1.76
			c0,0.86,0.26,1.64,0.79,2.35c0.52,0.69,1.21,1.36,2.07,1.99c0.84,0.64,1.82,1.25,2.92,1.83c1.1,0.58,2.21,1.16,3.34,1.77
			c1.15,0.6,2.27,1.23,3.37,1.88c1.1,0.65,2.07,1.36,2.92,2.13c0.86,0.77,1.55,1.62,2.07,2.56c0.52,0.91,0.79,1.93,0.79,3.06
			c0,1.28-0.26,2.5-0.75,3.62c-0.48,1.11-1.21,2.1-2.18,2.95c-0.97,0.83-2.19,1.49-3.64,1.97c-1.44,0.49-3.12,0.74-5.03,0.74
			c-1.56,0-2.94-0.17-4.16-0.5c-1.22-0.34-2.3-0.84-3.25-1.48c-0.92-0.65-1.72-1.45-2.38-2.4c-0.67-0.94-1.22-2.01-1.65-3.2
			l2.93-1.21c0.33,1.05,0.79,1.99,1.37,2.83c0.56,0.83,1.23,1.54,2,2.14c0.77,0.56,1.62,1.01,2.55,1.32
			C1110.64-1177.77,1111.63-1177.62,1112.69-1177.62L1112.69-1177.62z"/>
		<path id="path4736" class="st0" d="M1141.04-1175.7c-1.62,0-3.16-0.32-4.59-0.95c-1.42-0.65-2.67-1.53-3.74-2.64
			c-1.04-1.11-1.88-2.42-2.5-3.92c-0.6-1.5-0.9-3.1-0.9-4.8c0-1.89,0.33-3.66,1-5.31c0.68-1.66,1.62-3.1,2.78-4.34
			c1.18-1.23,2.55-2.21,4.11-2.92c1.57-0.71,3.24-1.07,5.04-1.07c1.4,0,2.68,0.16,3.85,0.47c1.18,0.3,2.19,0.71,3.04,1.25
			c0.85,0.53,1.52,1.15,2,1.88c0.48,0.73,0.72,1.5,0.72,2.34c0,0.37-0.1,0.73-0.3,1.07c-0.19,0.32-0.43,0.61-0.74,0.86
			c-0.32,0.25-0.67,0.45-1.07,0.61c-0.39,0.14-0.79,0.2-1.18,0.2c-0.46,0-0.85-0.08-1.21-0.23c-0.35-0.17-0.67-0.38-0.92-0.63
			c-0.24-0.26-0.44-0.55-0.58-0.88c-0.12-0.33-0.19-0.66-0.19-1c0-0.57-0.05-1.1-0.19-1.6c-0.12-0.51-0.33-0.95-0.64-1.3
			c-0.31-0.37-0.74-0.66-1.28-0.86c-0.54-0.21-1.24-0.32-2.06-0.32c-1.13,0-2.15,0.23-3.04,0.7c-0.9,0.45-1.66,1.06-2.28,1.83
			c-0.62,0.77-1.09,1.69-1.42,2.73c-0.33,1.04-0.48,2.15-0.48,3.32c0,1.6,0.21,3.1,0.62,4.53c0.42,1.43,1.01,2.67,1.77,3.74
			c0.76,1.07,1.67,1.92,2.74,2.56c1.07,0.62,2.26,0.92,3.57,0.92c1.16,0,2.16-0.17,3.02-0.53c0.85-0.37,1.58-0.87,2.21-1.49
			c0.63-0.62,1.17-1.34,1.62-2.16c0.46-0.83,0.86-1.69,1.21-2.6l1.49,0.6c-0.42,1.57-0.98,2.96-1.69,4.2
			c-0.72,1.24-1.56,2.28-2.54,3.13c-0.96,0.85-2.04,1.5-3.27,1.95C1143.79-1175.92,1142.46-1175.7,1141.04-1175.7L1141.04-1175.7z"
			/>
		<path id="path4738" class="st0" d="M1161.46-1213.93c0.38,0,0.74,0.07,1.08,0.21c0.35,0.12,0.66,0.3,0.91,0.53
			c0.25,0.22,0.47,0.48,0.62,0.79c0.16,0.29,0.23,0.61,0.23,0.95c0,0.33-0.08,0.66-0.23,0.97c-0.15,0.29-0.37,0.55-0.62,0.79
			c-0.25,0.21-0.56,0.39-0.91,0.53c-0.34,0.12-0.71,0.19-1.08,0.19c-0.39,0-0.76-0.06-1.1-0.19c-0.34-0.14-0.63-0.32-0.9-0.53
			c-0.25-0.24-0.45-0.5-0.6-0.79c-0.15-0.31-0.23-0.64-0.23-0.97c0-0.34,0.08-0.66,0.23-0.95c0.16-0.31,0.36-0.57,0.6-0.79
			c0.27-0.23,0.56-0.41,0.9-0.53C1160.7-1213.86,1161.06-1213.93,1161.46-1213.93L1161.46-1213.93z M1159.03-1200.26l3.48-1.42h1.44
			v25.43h-4.92V-1200.26L1159.03-1200.26z"/>
		<path id="path4740" class="st0" d="M1182.69-1175.7c-1.68,0-3.27-0.32-4.76-0.95c-1.47-0.63-2.76-1.49-3.88-2.57
			c-1.1-1.1-1.97-2.37-2.62-3.83c-0.63-1.47-0.95-3.04-0.95-4.71c0-2,0.29-3.84,0.88-5.55c0.58-1.7,1.42-3.17,2.48-4.41
			c1.07-1.23,2.35-2.2,3.85-2.89c1.52-0.7,3.2-1.05,5.04-1.05c1.64,0,3.14,0.29,4.5,0.86c1.37,0.57,2.54,1.34,3.5,2.32
			c0.98,0.96,1.74,2.08,2.28,3.34c0.54,1.27,0.82,2.6,0.82,4h-18.59c0,1.67,0.21,3.23,0.65,4.66c0.43,1.42,1.03,2.65,1.81,3.69
			c0.77,1.04,1.7,1.85,2.79,2.44c1.08,0.59,2.27,0.88,3.55,0.88c1.08,0,2.12-0.17,3.11-0.51c0.99-0.35,1.89-0.81,2.69-1.37
			c0.8-0.58,1.48-1.22,2.04-1.94c0.57-0.74,0.98-1.5,1.21-2.28l1.42,0.63c-0.36,1.29-0.94,2.49-1.75,3.62
			c-0.79,1.12-1.71,2.09-2.78,2.92c-1.05,0.84-2.22,1.5-3.49,2C1185.25-1175.94,1183.97-1175.7,1182.69-1175.7L1182.69-1175.7z
			 M1187.62-1193.15c0-0.94-0.17-1.82-0.5-2.62c-0.33-0.82-0.78-1.53-1.37-2.11c-0.58-0.6-1.25-1.07-2.05-1.42
			c-0.77-0.34-1.6-0.51-2.5-0.51c-0.75,0-1.46,0.17-2.16,0.51c-0.68,0.34-1.29,0.81-1.83,1.39c-0.53,0.59-0.97,1.29-1.33,2.11
			c-0.34,0.81-0.55,1.68-0.62,2.62L1187.62-1193.15L1187.62-1193.15z"/>
		<path id="path4742" class="st0" d="M1200.81-1201.24h4.93v4.55c1.5-1.69,3.07-2.95,4.69-3.78c1.62-0.85,3.29-1.28,4.97-1.28
			c0.86,0,1.68,0.21,2.43,0.6c0.78,0.38,1.44,0.92,2,1.6c0.57,0.67,1.03,1.48,1.34,2.41c0.35,0.92,0.51,1.89,0.51,2.92v17.89h-4.96
			v-17.05c0-1.64-0.37-2.89-1.11-3.74c-0.74-0.85-1.69-1.27-2.85-1.27c-0.53,0-1.08,0.08-1.67,0.25c-0.59,0.17-1.19,0.42-1.79,0.74
			c-0.6,0.31-1.21,0.69-1.81,1.14c-0.6,0.43-1.18,0.92-1.74,1.46v18.47h-4.93V-1201.24L1200.81-1201.24z"/>
		<path id="path4744" class="st0" d="M1239.64-1175.7c-1.62,0-3.15-0.32-4.6-0.95c-1.42-0.65-2.67-1.53-3.74-2.64
			c-1.05-1.11-1.88-2.42-2.5-3.92c-0.6-1.5-0.91-3.1-0.91-4.8c0-1.89,0.33-3.66,1-5.31c0.68-1.66,1.61-3.1,2.78-4.34
			c1.17-1.23,2.54-2.21,4.11-2.92c1.56-0.71,3.24-1.07,5.04-1.07c1.39,0,2.67,0.16,3.84,0.47c1.18,0.3,2.19,0.71,3.04,1.25
			c0.85,0.53,1.51,1.15,2,1.88c0.48,0.73,0.71,1.5,0.71,2.34c0,0.37-0.1,0.73-0.3,1.07c-0.19,0.32-0.43,0.61-0.75,0.86
			c-0.31,0.25-0.66,0.45-1.06,0.61c-0.39,0.14-0.78,0.2-1.19,0.2c-0.45,0-0.85-0.08-1.21-0.23c-0.36-0.17-0.66-0.38-0.92-0.63
			c-0.25-0.26-0.44-0.55-0.58-0.88c-0.12-0.33-0.18-0.66-0.18-1c0-0.57-0.06-1.1-0.19-1.6c-0.12-0.51-0.33-0.95-0.65-1.3
			c-0.3-0.37-0.73-0.66-1.27-0.86c-0.54-0.21-1.24-0.32-2.07-0.32c-1.12,0-2.14,0.23-3.04,0.7c-0.9,0.45-1.66,1.06-2.27,1.83
			c-0.62,0.77-1.09,1.69-1.41,2.73c-0.33,1.04-0.49,2.15-0.49,3.32c0,1.6,0.21,3.1,0.62,4.53c0.42,1.43,1,2.67,1.76,3.74
			c0.76,1.07,1.67,1.92,2.74,2.56c1.06,0.62,2.26,0.92,3.57,0.92c1.17,0,2.17-0.17,3.02-0.53c0.84-0.37,1.58-0.87,2.2-1.49
			c0.62-0.62,1.18-1.34,1.62-2.16c0.46-0.83,0.86-1.69,1.21-2.6l1.48,0.6c-0.42,1.57-0.98,2.96-1.69,4.2
			c-0.71,1.24-1.56,2.28-2.53,3.13c-0.96,0.85-2.05,1.5-3.27,1.95C1242.37-1175.92,1241.06-1175.7,1239.64-1175.7L1239.64-1175.7z"
			/>
		<path id="path4746" class="st0" d="M1268.44-1175.7c-1.69,0-3.27-0.32-4.75-0.95c-1.47-0.63-2.76-1.49-3.88-2.57
			c-1.1-1.1-1.97-2.37-2.62-3.83c-0.64-1.47-0.96-3.04-0.96-4.71c0-2,0.3-3.84,0.88-5.55c0.58-1.7,1.42-3.17,2.48-4.41
			c1.07-1.23,2.36-2.2,3.85-2.89c1.52-0.7,3.2-1.05,5.04-1.05c1.65,0,3.14,0.29,4.5,0.86c1.37,0.57,2.53,1.34,3.51,2.32
			c0.97,0.96,1.72,2.08,2.27,3.34c0.54,1.27,0.81,2.6,0.81,4h-18.59c0,1.67,0.21,3.23,0.65,4.66c0.43,1.42,1.03,2.65,1.8,3.69
			c0.78,1.04,1.7,1.85,2.79,2.44c1.08,0.59,2.27,0.88,3.55,0.88c1.08,0,2.12-0.17,3.12-0.51c0.99-0.35,1.88-0.81,2.69-1.37
			c0.8-0.58,1.49-1.22,2.04-1.94c0.58-0.74,0.97-1.5,1.21-2.28l1.42,0.63c-0.36,1.29-0.94,2.49-1.74,3.62
			c-0.79,1.12-1.71,2.09-2.79,2.92c-1.05,0.84-2.21,1.5-3.48,2C1270.99-1175.94,1269.72-1175.7,1268.44-1175.7L1268.44-1175.7z
			 M1273.38-1193.15c0-0.94-0.17-1.82-0.51-2.62c-0.32-0.82-0.79-1.53-1.37-2.11c-0.57-0.6-1.25-1.07-2.04-1.42
			c-0.78-0.34-1.6-0.51-2.5-0.51c-0.75,0-1.46,0.17-2.16,0.51c-0.68,0.34-1.29,0.81-1.84,1.39c-0.52,0.59-0.96,1.29-1.32,2.11
			c-0.33,0.81-0.55,1.68-0.62,2.62L1273.38-1193.15L1273.38-1193.15z"/>
		<path id="path4748" class="st0" d="M1304.62-1192.41c0,2.28,0.34,4.31,1.03,6.11c0.67,1.79,1.61,3.32,2.8,4.57
			c1.19,1.24,2.6,2.19,4.23,2.86c1.64,0.65,3.41,0.97,5.31,0.97c1.12,0,2.23-0.22,3.27-0.65c1.05-0.45,2.03-1.02,2.93-1.71
			c0.91-0.71,1.71-1.51,2.43-2.39c0.71-0.9,1.3-1.81,1.75-2.72l2.28,1.46c-0.66,1.08-1.45,2.13-2.36,3.13
			c-0.9,1-1.95,1.89-3.13,2.67c-1.19,0.76-2.54,1.37-4.04,1.83c-1.5,0.46-3.17,0.7-5.04,0.7c-1.78,0-3.45-0.21-5.04-0.63
			c-1.58-0.4-3.03-0.97-4.36-1.69c-1.31-0.74-2.5-1.63-3.55-2.67c-1.03-1.04-1.91-2.17-2.65-3.41c-0.71-1.25-1.25-2.59-1.63-4.01
			c-0.39-1.43-0.59-2.89-0.59-4.41c0-1.51,0.2-2.98,0.59-4.41c0.39-1.44,0.96-2.78,1.68-4.04c0.74-1.27,1.65-2.42,2.71-3.48
			c1.07-1.05,2.26-1.95,3.6-2.69c1.35-0.76,2.82-1.35,4.41-1.77c1.58-0.42,3.29-0.63,5.09-0.63c1.72,0,3.3,0.23,4.74,0.7
			c1.45,0.46,2.78,1.08,3.97,1.86c1.21,0.76,2.28,1.63,3.2,2.65c0.93,1,1.73,2.05,2.39,3.13l-2.34,1.57
			c-1.36-2.61-2.87-4.53-4.54-5.76c-1.68-1.22-3.59-1.83-5.76-1.83c-1.88,0-3.62,0.34-5.24,1.02c-1.62,0.68-3.04,1.66-4.25,2.93
			c-1.21,1.27-2.16,2.81-2.85,4.62C1304.98-1196.72,1304.62-1194.67,1304.62-1192.41L1304.62-1192.41z"/>
		<path id="path4750" class="st0" d="M1349.93-1175.7c-1.9,0-3.67-0.33-5.29-1c-1.61-0.66-3-1.57-4.18-2.72
			c-1.16-1.15-2.07-2.48-2.74-4.02c-0.64-1.54-0.97-3.19-0.97-4.94c0-1.85,0.33-3.56,0.97-5.17c0.67-1.63,1.58-3.03,2.74-4.22
			c1.18-1.21,2.57-2.16,4.18-2.85c1.62-0.7,3.39-1.05,5.29-1.05c1.9,0,3.65,0.32,5.24,0.95c1.62,0.64,3.01,1.51,4.18,2.62
			c1.18,1.1,2.08,2.4,2.73,3.9c0.67,1.48,1,3.07,1,4.78c0,1.89-0.34,3.66-1,5.33c-0.65,1.66-1.55,3.12-2.73,4.37
			c-1.17,1.24-2.57,2.22-4.18,2.95C1353.58-1176.05,1351.83-1175.7,1349.93-1175.7z M1350.86-1177.53c0.97,0,1.85-0.25,2.67-0.74
			c0.82-0.51,1.52-1.18,2.11-2.02c0.6-0.86,1.07-1.84,1.39-2.97c0.32-1.13,0.49-2.33,0.49-3.58c0-1.81-0.16-3.49-0.47-5.05
			c-0.31-1.58-0.82-2.96-1.51-4.13c-0.7-1.17-1.6-2.09-2.71-2.76c-1.12-0.68-2.49-1.02-4.11-1.02c-0.83,0-1.64,0.24-2.42,0.72
			c-0.77,0.47-1.46,1.14-2.06,1.97c-0.59,0.84-1.06,1.81-1.42,2.93c-0.36,1.11-0.53,2.29-0.53,3.55c0,1.81,0.2,3.51,0.58,5.11
			c0.38,1.59,0.94,2.98,1.67,4.17c0.73,1.18,1.62,2.11,2.69,2.81C1348.31-1177.87,1349.51-1177.53,1350.86-1177.53L1350.86-1177.53z
			"/>
		<path id="path4752" class="st0" d="M1370.01-1180.68c0.38,0,0.71,0.07,1.03,0.21c0.32,0.13,0.6,0.3,0.83,0.54
			c0.24,0.23,0.43,0.5,0.58,0.81c0.14,0.31,0.21,0.64,0.21,1c0,0.36-0.07,0.69-0.21,1.02c-0.14,0.31-0.33,0.58-0.58,0.81
			c-0.23,0.23-0.51,0.41-0.83,0.53c-0.31,0.14-0.65,0.21-1.03,0.21c-0.37,0-0.71-0.07-1.04-0.21c-0.33-0.12-0.61-0.3-0.86-0.53
			c-0.24-0.23-0.42-0.51-0.55-0.81c-0.14-0.33-0.21-0.66-0.21-1.02c0-0.36,0.07-0.69,0.21-1c0.14-0.31,0.32-0.58,0.55-0.81
			c0.25-0.24,0.53-0.41,0.86-0.54C1369.29-1180.61,1369.64-1180.68,1370.01-1180.68z"/>
		<path id="path4754" class="st0" d="M1390.6-1208.63h5.43v30.23h16.27v2.09h-21.71L1390.6-1208.63L1390.6-1208.63z"/>
		<path id="path4756" class="st0" d="M1430.6-1179.55c-0.67,1.15-1.55,2.05-2.65,2.71c-1.1,0.67-2.45,1-4.06,1
			c-0.83,0-1.57-0.14-2.18-0.41c-0.61-0.28-1.11-0.67-1.51-1.19c-0.4-0.51-0.7-1.12-0.92-1.83c-0.18-0.71-0.27-1.5-0.27-2.37v-17.57
			h-4.31v-1.23c1.38,0,2.54-0.25,3.43-0.74c0.9-0.5,1.63-1.19,2.2-2.04c0.58-0.87,1.02-1.86,1.35-2.99c0.33-1.13,0.61-2.33,0.86-3.6
			h1.42v8.52h5.59v2.09h-5.59v17.57c0,0.37,0.07,0.72,0.21,1.04c0.14,0.33,0.33,0.61,0.56,0.86c0.25,0.23,0.53,0.42,0.86,0.56
			c0.34,0.13,0.69,0.21,1.07,0.21c0.56,0,1.06-0.13,1.5-0.39c0.46-0.28,0.87-0.62,1.21-1.02L1430.6-1179.55L1430.6-1179.55z"/>
		<path id="path4758" class="st0" d="M1452.77-1178.75c-0.57,0.47-1.18,0.88-1.85,1.26c-0.67,0.35-1.36,0.66-2.1,0.93
			c-0.71,0.25-1.43,0.44-2.17,0.58c-0.73,0.14-1.44,0.21-2.13,0.21c-1.47,0-2.85-0.34-4.13-1.02c-1.26-0.68-2.39-1.6-3.34-2.76
			c-0.95-1.16-1.7-2.51-2.25-4.04c-0.55-1.53-0.82-3.15-0.82-4.85c0-1.13,0.16-2.24,0.46-3.34c0.33-1.1,0.77-2.13,1.33-3.11
			c0.57-0.99,1.25-1.9,2.03-2.74c0.81-0.83,1.7-1.55,2.67-2.15c0.97-0.62,2.01-1.1,3.11-1.44c1.11-0.34,2.27-0.51,3.48-0.51
			s2.26,0.22,3.18,0.64c0.91,0.42,1.75,0.98,2.53,1.67v-13.16l3.46-1.42h1.46v38.22h-4.92V-1178.75L1452.77-1178.75z
			 M1452.77-1193.32c0-0.97-0.18-1.86-0.55-2.67c-0.36-0.82-0.83-1.52-1.42-2.09c-0.59-0.57-1.25-1.01-1.99-1.32
			c-0.74-0.33-1.5-0.49-2.26-0.49c-0.99,0-1.91,0.25-2.78,0.74c-0.85,0.5-1.6,1.19-2.25,2.07c-0.62,0.88-1.13,1.94-1.5,3.18
			c-0.38,1.23-0.56,2.56-0.56,4.04c0,1.57,0.2,3.06,0.6,4.46c0.42,1.37,0.98,2.58,1.7,3.62c0.71,1.02,1.54,1.83,2.48,2.43
			c0.96,0.59,1.98,0.88,3.07,0.88c0.52,0,1.04-0.07,1.56-0.21c0.52-0.14,1.01-0.32,1.48-0.56c0.48-0.23,0.92-0.5,1.34-0.81
			c0.43-0.32,0.78-0.64,1.09-0.97V-1193.32L1452.77-1193.32z"/>
		<path id="path4760" class="st0" d="M1467.55-1180.68c0.38,0,0.71,0.07,1.03,0.21c0.33,0.13,0.6,0.3,0.83,0.54
			c0.24,0.23,0.43,0.5,0.58,0.81c0.13,0.31,0.21,0.64,0.21,1c0,0.36-0.07,0.69-0.21,1.02c-0.15,0.31-0.34,0.58-0.58,0.81
			c-0.23,0.23-0.51,0.41-0.83,0.53c-0.31,0.14-0.65,0.21-1.03,0.21c-0.37,0-0.72-0.07-1.04-0.21c-0.33-0.12-0.62-0.3-0.86-0.53
			c-0.24-0.23-0.42-0.51-0.56-0.81c-0.13-0.33-0.21-0.66-0.21-1.02c0-0.36,0.07-0.69,0.21-1c0.15-0.31,0.32-0.58,0.56-0.81
			c0.24-0.24,0.53-0.41,0.86-0.54C1466.83-1180.61,1467.18-1180.68,1467.55-1180.68z"/>
	</g>
	<g>
		<path id="path4771" class="st0" d="M135.2,22.28c-0.63,0.23-1.28,0.47-1.94,0.74c-0.67,0.27-1.23,0.63-1.67,1.07l-1.81-0.4
			c-0.13-0.36-0.22-0.92-0.27-1.68c-0.04-0.49-0.15-0.89-0.33-1.2c-0.14-0.31-0.21-0.56-0.21-0.74c0-0.27,0.04-0.65,0.13-1.14
			c0.09-0.49,0.16-0.85,0.21-1.07v-0.33l0.27-0.53l0.67-0.27l1.47,0.4c1.66-0.18,2.68-0.27,3.08-0.27c1.83,0,3.28,0.74,4.35,2.21
			C138.34,20.59,137.03,21.66,135.2,22.28L135.2,22.28z M155.09,41.11c-2.55-1.03-5.18-1.63-7.9-1.81c-0.13,0.27-0.2,0.63-0.2,1.07
			c0,0.58,0.02,1.47,0.07,2.68c0.09,1.16,0.13,2.03,0.13,2.61c0,6.21-0.96,10.05-2.88,11.52c-1.43-3.75-2.1-6.58-2.01-8.5
			c0.22-4.73,0.31-7.97,0.27-9.71c-0.18-0.22-0.31-0.34-0.4-0.34c-0.35,0.04-1,0.11-1.94,0.2c-2.9,0.13-5.94,0.67-9.1,1.61
			c-0.54,0.18-1.68,0.74-3.41,1.67c-1.48,0.8-2.66,1.21-3.55,1.21c0.04-0.85-0.03-2.01-0.21-3.48c-0.04,0.04-0.07-0.45-0.07-1.47
			c0-0.31,0.1-0.63,0.28-0.94c0.31-0.71,6.56-2.3,18.75-4.75c0.27-10.05,0.4-14.95,0.4-14.73c0-0.45-0.29-1.12-0.87-2.01
			c-0.58-0.94-0.87-1.65-0.87-2.14c0-0.18,0.27-1.16,0.8-2.95l1.68-1.47l4.22,1.61l1.61,2.81c-1.38,2.28-2.17,5.38-2.35,9.31
			c-0.04,3.26-0.09,6.52-0.13,9.78c0.49,0.31,1.47,0.42,2.95,0.33c2.63-0.13,4.33-0.2,5.09-0.2c2.23,0,3.86,0.56,4.89,1.68
			C159.06,37.4,157.32,39.54,155.09,41.11L155.09,41.11z M138.01,30.99c-3.13,0.18-5.96,1.16-8.5,2.95l-1.01-0.27
			c-0.05-0.27-0.23-0.94-0.54-2.01c-0.27-0.85-0.4-1.54-0.4-2.08c0-0.81,0.27-1.5,0.8-2.08l1.87,0.33c1.88-0.76,3.82-1.14,5.83-1.14
			c0.76,0,1.81,0.75,3.15,2.27L138.01,30.99z M111.95,23.02c0.05-0.27-0.11-0.65-0.47-1.14c-0.31-0.54-0.51-0.92-0.6-1.14
			l-0.27-1.27l-0.94-0.34l-1.94,0.27c-0.58-0.22-1.19-0.42-1.81-0.6c-0.84-0.27-1.27-0.65-1.27-1.14c0-0.85,0.22-1.81,0.67-2.88
			c0.13-0.27,0.29-0.69,0.46-1.27l1.21,0.34c3.12-0.71,6.92-2.37,11.38-4.96c2.63,0.63,4.49,2.26,5.55,4.89
			c-0.22,0.44-0.55,1.23-1,2.34c-1.03-0.22-1.52-0.34-1.47-0.34c-2.54,0-4.73,0.83-6.56,2.48l2.48,1.61l-0.07,2.95l0.41,0.2
			c1.51-0.22,2.34-0.33,2.47-0.33c1.83,0,3.26,0.58,4.29,1.74l-0.4,3.35c-0.71,0.27-2.7,0.58-5.96,0.94
			c-0.63,0.09-1.17,0.2-1.61,0.33c-0.13,0.05-0.2,0.22-0.2,0.53c0-0.04,0.02,0.4,0.07,1.34c1.03,0.8,2.37,1.47,4.02,2.01
			c0.98,0.27,2.59,0.8,4.82,1.6c-0.49,1.38-1.16,2.46-2.01,3.21c-0.54,0.4-1.27,1.1-2.21,2.08c-0.31,0.09-0.56,0.13-0.74,0.13
			c-0.67,0-1.41-0.29-2.21-0.87c-0.76-0.63-1.29-0.92-1.61-0.87h-0.14l-0.07,0.27c-0.04,0.13-0.09,0.29-0.13,0.47
			c0,0.36,0.04,0.92,0.13,1.67c0.09,0.72,0.13,1.25,0.13,1.61c0,0.58-0.11,1.5-0.33,2.75c-0.18,1.25-0.27,2.19-0.27,2.81
			c0-0.05,0.11,0.78,0.33,2.48c-0.09,0.44-0.4,1.23-0.94,2.34c-0.4,0.89-0.67,1.79-0.8,2.68l-1.07-0.87l-1.07,0.74
			c-0.72-1.25-1.08-3.24-1.08-5.96c0-0.54,0.04-1.36,0.13-2.48c0.09-1.12,0.14-1.96,0.14-2.54c0-3.17-0.06-5.45-0.2-6.83
			c-4.96,4.69-9.2,7.5-12.72,8.44c-0.22-0.09-0.42-0.13-0.6-0.13c-1.43,0-2.08,0-1.94,0c-0.36-0.58-0.73-1.18-1.14-1.81
			c-0.36-0.62-0.54-1.23-0.54-1.81c0.49-1.3,1.27-2.19,2.34-2.68c0.36-0.18,1.48-0.51,3.35-1c4.24-1.03,7.97-3.95,11.18-8.77
			l-0.27-0.13c-0.89,0.13-2.12,0.38-3.68,0.74c-0.4,0.09-1.59,0.74-3.55,1.94l-1.28-0.47l-1.54-5.83l0.87-1.01l1.01,0.14
			C104.77,24.38,107.85,23.74,111.95,23.02L111.95,23.02z"/>
		<path id="path4773" class="st0" d="M206.8,13.85c-0.62-0.36-1.21-0.53-1.74-0.53c0.18,0-0.82,0.16-3.01,0.47l-2.27-0.54
			l-2.08,0.67c0-1.07,0.29-1.85,0.88-2.34c0.62-0.54,1.26-1.03,1.94-1.47c0.41-0.36,1.03-0.83,1.88-1.41
			c0.63-0.35,1.47-0.53,2.55-0.53c0.18,0.31,0.8,0.58,1.87,0.8c1.25,0.22,2.1,0.8,2.54,1.74C209.26,11.64,208.41,12.69,206.8,13.85z
			 M189.19,14.92c-0.9-0.31-1.68-1.34-2.34-3.08c-0.27-0.58-0.69-0.92-1.27-1.01l1.27-2.08l1.01-0.33c1.25,0.4,2.09,0.54,2.54,0.4
			c0.27,0.18,0.76,0.38,1.47,0.6c0.45,0.13,1.01,0.58,1.68,1.34C193.14,12.33,191.69,13.72,189.19,14.92L189.19,14.92z
			 M216.91,27.58c-0.13,0.36-0.31,0.87-0.53,1.54l-1.41,0.33c-1.25-0.8-2.1-1.83-2.54-3.08c-0.4-1.25-0.81-2.53-1.21-3.82
			l-1.07-0.47c-0.71,0.14-1.11,0.2-1.2,0.2c-7.68-0.8-11.52-1.2-11.52-1.2c-7.54,0-16.45,0.89-26.72,2.68
			c-0.18,0.36-0.65,1.65-1.4,3.88c-0.58,1.56-1.28,2.75-2.08,3.55c-1.47-0.4-2.21-1.18-2.21-2.34c0-0.98,0.22-2.34,0.67-4.08
			c0.49-1.79,0.76-3.12,0.8-4.02l-0.8-0.47c-0.13-0.4-0.2-0.76-0.2-1.07c0-1.29,0.51-2.17,1.54-2.61c1.56,0.18,2.88,0.45,3.95,0.81
			c0.45,0.76,1.07,1.23,1.88,1.4c5.31-2.05,12.94-3.08,22.9-3.08c5.32,0,9.74,0.65,13.26,1.94l1.07-1.88l1.67-0.2
			c0.76,0.27,1.8,0.74,3.15,1.41c0.8,0.58,1.2,1.56,1.2,2.95c0,0.31,0.04,0.6,0.13,0.87c-0.04,0.27,0.27,2.01,0.94,5.22
			C217.27,26.44,217.18,26.95,216.91,27.58L216.91,27.58z M177.27,15.86c-0.8-0.13-1.54-0.67-2.21-1.61
			c-0.49-0.8-0.96-1.61-1.4-2.41c0-1.38,0.85-2.08,2.54-2.08c0.05,0,0.18,0.02,0.4,0.07l0.6,0.2c0.54,0.18,2.23,0.45,5.09,0.8
			l0.14,1.81C181.13,13.94,179.41,15.01,177.27,15.86z M222.74,40.77c-0.53,0.22-1.27,0.63-2.21,1.21
			c-0.71,0.49-1.43,1.01-2.14,1.54c-0.94,0.67-1.72,1.01-2.34,1.01c-0.14,0-0.81-0.16-2.01-0.47c-1.2-0.36-2.99-0.9-5.36-1.61
			c-1.47-0.18-3.64-0.58-6.5-1.2l-0.4,0.13c0.14,0.62,0.21,1.03,0.21,1.21c0,3.08-2.73,5.98-8.17,8.71
			c-2.59,1.3-4.26,2.08-5.02,2.35c-1.7,0.67-3.5,1.05-5.43,1.14c-0.58,0.05-1.62,0.07-3.15,0.07c-0.27,0-1.69-0.22-4.29-0.67
			c-2.54-0.44-3.88-0.69-4.02-0.73l-1.54-0.87l-0.27-2.54c1.29-0.85,3.32-1.41,6.09-1.68c2.19-0.18,4.37-0.33,6.56-0.47
			c2.1-0.31,5.13-1.18,9.1-2.61c1.48-0.58,2.5-1.09,3.08-1.54c0.89-0.67,1.32-1.56,1.27-2.68v-0.47l-0.14-0.13
			c-0.04-0.04-0.11-0.09-0.2-0.13l-0.2,0.2c-0.94-0.18-1.81-0.27-2.61-0.27c-0.76,0-2.28,0.16-4.55,0.47
			c-1.97,0.27-3.46,0.34-4.49,0.2c-0.71-0.09-1.03-0.13-0.94-0.13c-1.2,0-2.81,0.22-4.82,0.67c-1.65,0.36-3.28,0.71-4.89,1.07
			c-3.31,0.67-6.81,1.45-10.51,2.34l-0.4-0.2c-0.13,0.04-0.29,0.06-0.47,0.06l-0.21,0.2c-0.76-0.22-1.22-0.67-1.4-1.34
			c-0.18-0.72-0.34-1.41-0.47-2.08c-0.09-0.45-0.29-0.92-0.6-1.41l0.87-0.27l0.14-1.27l2.55-1.54h0.6c0.58,0.36,1.03,0.76,1.34,1.2
			c0.27-0.05,2.59-0.38,6.97-1c2.94-0.45,5.2-0.6,6.76-0.47c0.63-0.27,1.63-0.45,3.01-0.54c1.43-0.09,2.46-0.25,3.08-0.47
			c-0.04-0.13-0.2-0.56-0.47-1.27c-0.22-0.54-0.33-0.92-0.33-1.14c0-0.58,0.31-1.02,0.94-1.34c0.62-0.35,1.19-0.53,1.67-0.53
			l0.47,0.06c0.44,0.32,0.9,0.47,1.34,0.47c1.16,0,2.88-0.82,5.15-2.48c-6.6-0.04-12.21,0.91-16.81,2.88
			c-0.67-0.36-1.13-0.87-1.4-1.54c-0.22-0.67-0.45-1.32-0.67-1.94c-0.13-0.36-0.38-0.69-0.74-1c2.68-2.5,8.42-3.75,17.21-3.75
			c0.94,0,2.34,0.11,4.22,0.33c1.88,0.18,3.28,0.27,4.22,0.27c0.71,0,2.43-0.36,5.16-1.07c0.04,0.36,0.18,0.65,0.4,0.87
			c0.76,0.49,1.72,1.38,2.88,2.68c-0.22,0.76-0.53,1.25-0.93,1.47c-0.36,0.22-1.14,0.47-2.34,0.74c-0.4,0.22-1,0.51-1.81,0.87
			c-1.34,0.45-2.68,0.92-4.02,1.41c-1.96,0.67-3.08,1.3-3.35,1.88c0.72,0.54,1.79,1.16,3.22,1.87c0.53,0.18,1.85,0.27,3.95,0.27
			c0.93,0,2.19,0.16,3.75,0.47c1.83,0.4,3.06,0.62,3.68,0.67c0.76-0.05,1.86-0.05,3.28,0l5.49,0.53c0.22,0.13,1.63,0.58,4.21,1.34
			c0.13,0.45,0.2,0.8,0.2,1.07C223.21,40.19,223.05,40.5,222.74,40.77L222.74,40.77z"/>
		<path id="path4775" class="st0" d="M288.57,28.72c-0.94,0.4-2.28,1.09-4.02,2.08c-0.45,0.36-0.98,0.54-1.61,0.54
			c-1.12,0-2.83-0.22-5.15-0.67c-2.32-0.49-4.09-0.71-5.29-0.67h-0.34l-0.53,1.88c0.09,0.72,0.14,1.11,0.14,1.2v10.72
			c0.09,4.6-0.29,8.15-1.14,10.65c-0.36,1.16-1.2,1.97-2.55,2.41c-1.3-2.9-1.94-6.01-1.94-9.31c0-0.76,0.02-1.87,0.06-3.35
			c0.09-1.52,0.13-2.65,0.13-3.41v-4.82c0-0.72-0.02-1.72-0.07-3.01c-0.04-1.29-0.07-2.25-0.07-2.88c-0.27-0.04-0.56-0.07-0.87-0.07
			c-0.49,0-1.83,0.13-4.01,0.4c-2.19,0.22-3.37,0.36-3.55,0.4c-0.63,0.31-1.56,0.76-2.81,1.34c-0.31,0.09-0.8,0.13-1.47,0.13
			c-0.67,0-1.27,0.16-1.81,0.47c-0.22-2.19-0.34-3.28-0.34-3.28c0-0.04,0.12-0.98,0.34-2.81l2.61-1.27l0.74,0.33l11.38-1.6
			c0.31-1.07,0.46-2.75,0.46-5.03c0-0.85-0.22-2.05-0.67-3.62c-0.4-1.56-0.6-2.7-0.6-3.41c0-1.61,1.03-2.41,3.08-2.41
			c1.02,0,2.05,0.51,3.08,1.54c1.02,0.98,1.71,2.03,2.07,3.15l-1.61,1.54l-0.27,7.84c0,0,0.45,0,1.34,0c0.27,0,0.52,0.05,0.74,0.13
			c0.54,0,2.01-0.09,4.42-0.27c1.78-0.09,3.24-0.13,4.35-0.13c0.76,0,1.68,0.15,2.74,0.47c1.52,0.45,2.41,0.69,2.68,0.73
			c0.8,0.98,1.2,1.83,1.2,2.55C289.44,27.86,289.15,28.37,288.57,28.72L288.57,28.72z M247.79,19.48c-0.76,0-1.92-0.07-3.48-0.2
			c-1.56-0.18-2.73-0.27-3.48-0.27c-0.94,0-3.22,0.25-6.83,0.74l-7.3,1c-0.93-0.31-1.4-1.03-1.4-2.14c0-1.61,0.4-2.68,1.2-3.21
			c0.59-0.36,1.65-0.54,3.22-0.54c0.58,0,3.06-0.38,7.44-1.14c0.04-0.45,0.13-1.09,0.27-1.94l-0.27-1.61
			c0.31-1.12,1.09-1.67,2.35-1.67c1.6,0,2.94,1,4.01,3.01l-0.14,0.67c-0.22,0.18-0.51,0.54-0.86,1.07c0,0.05-0.03,0.09-0.07,0.14
			l0.07,0.07c0.18,0.09,0.4,0.13,0.67,0.13c3.25,0.09,5.04,0.16,5.35,0.2c1.97,0.36,3.39,1.34,4.29,2.95
			C250.85,18.57,249.17,19.48,247.79,19.48L247.79,19.48z M245.58,26.38c-0.54,0-1.34-0.07-2.41-0.2c-1.07-0.14-1.87-0.2-2.41-0.2
			c-1.83,0-3.37,0.13-4.62,0.4c0,0-0.69,0.2-2.08,0.6c-0.8,0.22-1.49,0.33-2.07,0.33c-0.27,0-1.56-0.16-3.88-0.47
			c-0.14-1.38-0.2-2.07-0.2-2.07c0-0.05,0.07-0.4,0.2-1.07c4.82-1.47,9.17-2.21,13.06-2.21c2.32,0,3.97,0.13,4.95,0.4
			c1.84,0.49,3,1.52,3.49,3.08C248.12,25.91,246.79,26.38,245.58,26.38L245.58,26.38z M245.84,34.22c-3.12-0.22-4.96-0.33-5.49-0.33
			c-3.75,0-7.28,0.52-10.58,1.54c-0.63-0.58-1.66-1.36-3.09-2.35l0.27-1.54c4.2-1.38,9.73-2.07,16.61-2.07
			c1.56,0,2.77,0.22,3.62,0.67c0.89,0.44,1.74,1.32,2.54,2.61C248.52,33.82,247.23,34.31,245.84,34.22L245.84,34.22z M250.8,51.16
			c-0.85,0.4-1.99,1.09-3.42,2.08c-1.69-0.85-4.3-1.27-7.83-1.27c-4.37,0-8.73,1.02-13.06,3.08l-0.94-0.67l-1-3.28
			c0.14-0.67,0.15-1.32,0.06-1.94c0.76-0.76,1.21-1.72,1.34-2.88c0-0.67,0.16-1.7,0.47-3.08l-0.6-3.82l1.41-1.14l2.88,0.94
			c4.06-0.89,8.62-1.34,13.66-1.34c3.53,0,5.83,0.56,6.9,1.67c0.13,1.3,0.2,1.94,0.2,1.94c0,0.22-0.07,0.58-0.2,1.07
			c-0.13,0.45-0.2,0.8-0.2,1.07c0,0.45,0.09,1.12,0.27,2.01c0.22,0.85,0.33,1.5,0.33,1.94c0,0.18-0.13,0.76-0.4,1.74
			C250.53,50,250.58,50.62,250.8,51.16z M245.84,42.59c-3.26,0.22-8.19,0.49-14.8,0.8c-0.4,0.27-0.6,0.94-0.6,2.01
			c0,0,0.04,0.65,0.13,1.94l0.33,0.27l6.29-1.07l0.61,0.2c1.92,0,4.8-0.07,8.64-0.2C246.4,45.65,246.2,44.33,245.84,42.59
			L245.84,42.59z"/>
		<path id="path4777" class="st0" d="M307.09,16.47c-0.67-0.05-1.52,0.02-2.54,0.2c0.04,0.4,0.07,0.67,0.07,0.8
			c0,0.45-0.18,0.98-0.53,1.61c-0.31,0.63-0.7,1.05-1.14,1.27c-0.67-0.27-1.25-0.71-1.74-1.34c-0.45-0.62-0.87-1.23-1.27-1.81
			l-0.2-0.07l-0.13-0.06h-0.06c-1.52,0-2.43,0.06-2.75,0.2c-0.58,0.44-1.38,1.07-2.41,1.87c-0.49,0.36-1.43,0.76-2.81,1.21
			c-1.34,0.4-2.28,0.54-2.82,0.4l-3.02-0.67c-0.04-0.67-0.06-1-0.06-1c0-1.07,0.42-1.85,1.27-2.34c0.31-0.18,1.16-0.45,2.54-0.8
			c1.43-0.36,2.93-0.99,4.49-1.88c1.79-1.03,2.88-2.06,3.28-3.08c-0.09-0.76-0.14-1.18-0.14-1.27l0.27-0.34l1.68-0.67l3.89,1.47
			l0.47,1.14l-0.13,1.14l-0.74,0.47h0.2c0.4,0,0.98-0.02,1.74-0.07c0.8-0.09,1.39-0.13,1.74-0.13c2.37,0,3.73,0.63,4.09,1.87
			C309.77,15.75,308.7,16.38,307.09,16.47L307.09,16.47z M323.57,13.66h0.67c0.58-0.05,1.52-0.09,2.81-0.14
			c1.3-0.09,2.28-0.13,2.95-0.13c0.58,0,1.47,0.02,2.67,0.07c1.25,0.05,2.19,0.07,2.82,0.07c2.59,0,4.66,0.49,6.22,1.47l-0.33,2.28
			c-2.24,0.54-3.68,1.07-4.35,1.61c-1.83-0.71-3.53-0.98-5.09-0.8c-0.4-0.27-0.72-0.4-0.94-0.4c-0.18,0-0.58,0.31-1.2,0.93
			c-0.27,0.27-0.65,0.45-1.14,0.54c-0.45,0.09-1.03,0.31-1.75,0.67c0.18,0.09,0.43,0.14,0.74,0.14l0.27,0.2
			c0.13-0.09,0.29-0.13,0.46-0.13c0.18,0,0.45,0.05,0.81,0.13c0.4,0.05,0.69,0.07,0.86,0.07c0.58,0,1.12-0.13,1.61-0.4
			c0.76,0.31,1.56,0.67,2.41,1.07c0.85,0.4,1.5,0.91,1.94,1.54c-0.09,0.45-0.35,0.96-0.8,1.54c-0.27,0.44-0.4,0.83-0.4,1.14
			c0,0.58,0.04,1.45,0.13,2.61c0.14,1.16,0.2,2.03,0.2,2.61c0,0.4-0.09,1.01-0.27,1.81c-0.18,0.8-0.27,1.43-0.27,1.88
			c0-0.05,0.09,0.65,0.27,2.07c0.09,0.8-0.4,1.74-1.47,2.81c-1.03,1.07-1.99,1.54-2.88,1.41c-2.14-0.31-3.59-0.45-4.35-0.4
			l-0.13,1.14l0.13,0.07c0.4,0,0.98,0.09,1.74,0.27c4.55,0.13,7.57,0.27,9.04,0.4c3.3,0.31,6.25,0.96,8.84,1.94l-0.07,2.34
			l-4.35,2.41c-6.96-1.7-12.23-2.61-15.81-2.75h-0.13l-0.07,0.13c-0.35,2.99-0.55,4.65-0.6,4.96c-0.41,2.01-1.03,3.51-1.88,4.49
			l-1.61-0.2c-0.67-0.89-1.12-2.34-1.34-4.35c-0.05-1.6-0.09-3.19-0.13-4.75c-1.74-0.05-3.37-0.06-4.89-0.06
			c-2.46,0-4.69,0.11-6.7,0.33c-0.53,0.89-1.34,2.25-2.41,4.09c-1.07,1.79-3.41,3.53-7.03,5.22c-1.47,0.71-2.45,1.05-2.94,1.01
			c-1.12-0.13-1.97-0.18-2.55-0.13c-1.38-0.89-2.12-1.83-2.21-2.81l0.4-0.8c3.35-0.72,6.81-2.7,10.38-5.96
			c-5.94,0.98-9.35,1.58-10.25,1.81c-3.93,0.85-7.19,1.99-9.78,3.42l-1.01-0.54c-0.04-0.45-0.25-0.98-0.61-1.61
			c-0.49-0.85-0.78-1.38-0.87-1.61c0-2.41,0.94-3.82,2.81-4.22c1.25,0.98,1.88,1.47,1.88,1.47c0.36-0.09,1.12-0.27,2.27-0.54
			l2.68-0.67c2.55-0.53,7.52-1.43,14.94-2.68c0.04-0.18,0.06-0.38,0.06-0.6c0-0.71-0.24-1.07-0.73-1.07c-2.01,0-3.87,0.47-5.56,1.41
			l-0.87-0.47l-1.14-3.69c0.45-2.72,0.89-6.34,1.34-10.85c-0.27-0.62-0.56-1.29-0.87-2.01c-0.31-0.76-0.47-1.41-0.47-1.94
			c0-0.85,0.38-1.52,1.14-2.01c0.85,0.27,2.1,0.67,3.75,1.21l8.44-1.47c0.18-1.3,1.4-2.75,3.68-4.35c2.59-1.88,4.15-3.33,4.69-4.35
			l-0.21-0.54c0.54-1.25,1.43-1.87,2.68-1.87c0,0,0.6,0.07,1.81,0.2c0.09,0.41,0.36,0.65,0.8,0.74c0.76,0.18,1.3,0.33,1.61,0.47
			c0.44,0.27,0.8,0.69,1.07,1.27C324.99,12.72,324.46,13.35,323.57,13.66L323.57,13.66z M323.36,17.41l-0.07-0.07h-0.07
			c-1.92,0-3.28,0.09-4.08,0.27c-1.47,0.31-2.57,1.05-3.28,2.21c0.26,0.05,0.4,0.07,0.4,0.07c0.31,0,0.76-0.02,1.34-0.07
			c0.62-0.09,1.09-0.13,1.41-0.13c0.22,0,0.55,0.04,1,0.13c0.49,0.05,0.85,0.07,1.07,0.07c1.65,0,2.47-0.69,2.47-2.08
			C323.57,17.67,323.5,17.54,323.36,17.41L323.36,17.41z M329.12,24.57c-0.09-0.04-0.67-0.07-1.74-0.07c-0.45,0-2.41-0.06-5.89-0.2
			c-0.14,0-0.38-0.05-0.74-0.14c-0.36-0.09-0.63-0.13-0.8-0.13l-9.11,0.27l-0.94-0.27c-0.67,0.09-2.05,0.13-4.15,0.13
			c-0.67,0-1.34,0.14-2.01,0.4c-0.67,0.22-1.32,0.43-1.94,0.6l-0.46,0.94l0.06,0.13c4.51-0.85,10-1.27,16.47-1.27h2.95
			c2.32,0,4.02,0.02,5.09,0.07c0.31,0,0.8,0.04,1.47,0.13c0.71,0.09,1.28,0.13,1.67,0.13c0.27,0,0.54-0.02,0.81-0.07
			C329.73,24.88,329.48,24.66,329.12,24.57L329.12,24.57z M330.2,30c-0.89-0.04-2.27-0.11-4.15-0.2c-0.18,0-0.49-0.05-0.94-0.13
			c-0.4-0.13-0.74-0.2-1-0.2h-9.91c-7.28,0-11.59,0.34-12.92,1.01c-0.44,0.27-0.67,0.73-0.67,1.41l0.4,0.34
			c3.57-0.99,8.57-1.48,15-1.48c5.58,0,10.36,0.16,14.33,0.47l0.13-0.6L330.2,30L330.2,30z M329.66,34.89
			c-0.89,0-2.26-0.05-4.08-0.13c-0.18,0-0.49-0.07-0.94-0.2c-0.45-0.13-0.8-0.2-1.07-0.2h-9.78c-1.96,0-4.22,0.2-6.76,0.6
			c-2.23,0.31-4.47,0.65-6.69,1v1c4.73-1.11,9.46-1.67,14.19-1.67c0.85,0,5.85,0.22,15,0.67l0.4-0.54L329.66,34.89L329.66,34.89z
			 M319.21,40.85c-0.4-1.12-0.89-1.67-1.47-1.67c-0.09,0-0.24,0.04-0.47,0.13c-2.82-0.04-5.29,0-7.44,0.14l-0.6,1.74l0.27,0.07
			c0.04,0,0.07,0,0.07,0c0.94,0,2.57-0.02,4.89-0.07c2.05-0.04,3.68-0.06,4.89-0.06L319.21,40.85L319.21,40.85z"/>
		<path id="path4779" class="st0" d="M402.95,22.83c-0.36,0.05-0.88,0.18-1.54,0.4c-1.47-0.09-2.9-0.72-4.28-1.88
			c-0.58-0.54-1.66-1.7-3.22-3.48c-1.34-1.52-2.5-2.61-3.48-3.28c-0.58-0.4-0.87-1.41-0.87-3.02c0-0.76,0.54-1.67,1.61-2.74
			c1.07,0.31,2.25,1.11,3.55,2.41c1.51,1.47,2.63,2.41,3.34,2.81c0.27,0.13,1.72,0.6,4.35,1.41c1.66,0.49,2.9,1.38,3.75,2.68
			c0.04,0.31,0.07,0.58,0.07,0.8C406.23,20.73,405.13,22.03,402.95,22.83L402.95,22.83z M382.65,11.78
			c-0.32,1.03-0.96,2.01-1.94,2.95c-0.31,0.27-0.76,0.67-1.34,1.2c-2.72,2.99-4.95,4.49-6.7,4.49c-2.1,0-3.39-0.76-3.89-2.28
			c0.41-1.03,1.72-2.05,3.95-3.08c2.81-1.25,4.46-2.08,4.96-2.48l-0.21-1.61l0.67-1.74l1.67-0.54c0.94,0.22,2.19,0.8,3.75,1.74
			C383.15,10.67,382.84,11.11,382.65,11.78L382.65,11.78z M396.52,31c-0.14,0.31-0.36,0.91-0.67,1.81c-1.21-0.76-2.72-1.2-4.55-1.34
			c-0.17,0-1.79,0-4.82,0c-4.73,0-9.44,1.12-14.13,3.35c-1.21-1.56-1.81-2.79-1.81-3.68l0.67-1.27v-1.61l1.41-0.8l0.87,0.2
			c0.18,0.04,0.36,0.09,0.54,0.13c0.67,0,1.94-1.05,3.81-3.15c1.92-2.14,3.01-3.68,3.28-4.62c0.13-0.49,0.29-1.03,0.46-1.6
			c0.18-0.63,0.45-1.05,0.81-1.28c0.85-0.13,1.92-0.33,3.21-0.6l2.48,1.41c-0.36,0.8-0.6,1.81-0.74,3.01
			c-1.34,0.22-2.34,0.83-3.01,1.81c-1.03,0.4-2.15,1.56-3.35,3.48c0.63,0.04,1.07,0.07,1.34,0.07c0.54,0,1.32-0.04,2.35-0.13
			c1.07-0.14,1.85-0.2,2.34-0.2c0.13,0,0.92,0.13,2.34,0.4l0.74-0.2c0-0.09-0.38-0.74-1.14-1.94c-0.53-0.85-0.8-1.54-0.8-2.08
			c0-1.03,0.49-1.54,1.47-1.54c1.25,0,2.41,0.47,3.48,1.41c0.32,0.27,0.96,1.23,1.94,2.88c0.98,1.61,1.54,2.61,1.67,3.01
			c0.13,0.36,0.2,0.87,0.2,1.54C396.92,29.86,396.79,30.38,396.52,31L396.52,31z M402.21,43.86c-0.63,0.13-1.54,0.6-2.74,1.41
			c-1.16,0.8-2.3,1.16-3.42,1.07c-0.09-0.36-0.14-0.62-0.14-0.8c0-0.53,0.27-1.11,0.8-1.74c0.62-0.81,0.98-1.34,1.07-1.61
			c0.22-0.71,0.44-1.43,0.67-2.14c0.22-0.76,0.74-1.36,1.54-1.81c0.8,0.14,1.36,0.25,1.68,0.33c0.58,0.22,1.07,0.54,1.47,0.94
			l0.6,1.68C403.17,42.34,402.65,43.23,402.21,43.86z M406.83,53.57c-0.81,0.67-1.97,1.7-3.49,3.08h-1.6
			c-2.37-1.16-5.89-2.9-10.58-5.22c-2.73-1.47-5.03-2.57-6.9-3.28c-1.29-0.54-2.63-0.8-4.02-0.8c-0.44,0-0.86,0.04-1.27,0.13
			c-0.09,0.09-0.83,1.4-2.21,3.95c-0.85,1.52-2.01,2.48-3.48,2.88c0-2.14,0.58-4.67,1.74-7.57c1.02-2.41,2.03-4.8,3.01-7.16
			c0.22-1.16,0.47-2.32,0.74-3.48c0.31-1.21,1.12-1.97,2.41-2.28l3.15,1.34c0,0.99-0.29,2.03-0.87,3.15
			c-0.76,1.47-1.18,2.39-1.27,2.74c0.36,0.18,1.12,0.65,2.28,1.41c0.99,0.62,1.79,0.96,2.41,1c0.67-0.94,1.34-1.85,2.01-2.75
			c0.76-1.07,1.14-2.1,1.14-3.08l1.94-2.15l2.81,2.21c0.04,1.12,0.2,2.1,0.47,2.95c-0.36,0.54-0.94,0.94-1.74,1.21
			c-0.76,0.27-1.58,0.94-2.48,2.01l-0.54,0.67c1.61,1.61,3.92,2.59,6.96,2.95c2.59,0.22,5.18,0.47,7.77,0.74l3.95-0.67v2.01
			C409.17,50.76,408.39,52.09,406.83,53.57L406.83,53.57z M367.32,31.2c0-0.4,0.05,0.29,0.13,2.08l-1.47,0.47l-1.28-0.27
			c-0.27-0.09-0.58-0.18-0.94-0.27c-0.18,0-1,0.05-2.48,0.14c-0.22,0.31-0.37,0.76-0.47,1.34c-0.04,0.4-0.04,0.96,0,1.68
			c0,0.98,0,1.45,0,1.41c0,4.78-0.03,7.63-0.07,8.57c-0.27,3.17-1.05,5.89-2.34,8.17c-1.11-0.54-1.67-1.63-1.67-3.28
			c0,0-0.09-1.23-0.27-3.68c0.04,0.31,0.07-1.29,0.07-4.82v-8.7l-0.48-0.27c-1.16,0.27-3.9,1.09-8.23,2.48
			c-0.76-1.3-1.14-2.5-1.14-3.62c0-1.43,0.6-2.57,1.8-3.42c1.12-0.67,2.23-1.34,3.35-2.01c1.07-0.85,2.19-1.92,3.35-3.21
			c-0.49-0.58-1.48-1.14-2.95-1.67l-0.93,0.13c-2.77-1.07-4.16-2.23-4.16-3.48c0-1.43,0.32-2.39,0.94-2.88
			c0.76-0.27,1.85-0.8,3.28-1.61c0.72-0.63,1.77-1.56,3.15-2.81c0.31-0.22,0.94-0.94,1.87-2.14c0.72-0.89,1.46-1.5,2.21-1.81
			c0.63,0,1.47,0.38,2.54,1.14c1.11,0.76,1.67,1.45,1.67,2.07c0,0.31-0.09,0.76-0.27,1.34c-0.13,0.58-0.2,1.07-0.2,1.48
			c-2.41,0.27-4.55,1.56-6.43,3.88c0.62,0.54,1.57,1.36,2.82,2.48c0.84-0.49,1.5-0.98,1.94-1.48l-0.4-1.81
			c0.31-0.44,1.56-0.96,3.75-1.54c0.09,0.49,0.36,0.85,0.8,1.07l0.47,0.2c0.98,0.49,1.59,1.23,1.81,2.21l-0.94,2.68
			c-0.4-0.09-0.69-0.14-0.87-0.14c-0.76,0-1.58,0.36-2.48,1.07c-0.72,0.63-1.43,1.25-2.14,1.88c-0.54,0.36-1.3,0.94-2.28,1.74
			c-0.93,0.8-2.09,1.9-3.48,3.28c1.39-0.49,3.48-1.12,6.3-1.87c-0.49-1.34-0.65-2.37-0.47-3.08c0.63-0.36,1.03-0.54,1.2-0.54
			c0.27,0,0.87,0.29,1.81,0.87c0.94,0.54,1.74,0.8,2.42,0.8c0.05,0.13,0.49,0.76,1.34,1.88c0.53,0.71,0.8,1.47,0.8,2.27
			C367.66,29.95,367.32,30.49,367.32,31.2L367.32,31.2z M371.74,49.15c-0.18,0.4-0.89,1.47-2.14,3.21c-0.27,0.4-0.58,0.94-0.94,1.61
			c-1.07-1.61-1.61-3.19-1.61-4.75c0-2.63,1.3-5.16,3.89-7.57c1.51-1.38,2.34-2.07,2.48-2.07c0.22,0,0.49,0.13,0.8,0.4v0.6
			c0,0.58-0.33,2.03-1.01,4.35C372.54,47.03,372.05,48.43,371.74,49.15L371.74,49.15z M367.85,38.37c-0.18,0.45-0.4,1.14-0.67,2.07
			c-0.09,0.45-0.14,1.14-0.14,2.08c0,0.67-0.27,1.7-0.8,3.08c-0.49,1.38-1.03,2.37-1.61,2.95c-0.8-1.03-1.25-2.21-1.34-3.55
			c-0.04-1.34-0.09-2.64-0.13-3.88c-0.05-0.27-0.18-0.69-0.41-1.27c-0.22-0.58-0.33-1.05-0.33-1.41c0-1.07,0.58-1.9,1.74-2.48
			l4.02,1.34C368.1,37.74,367.99,38.1,367.85,38.37L367.85,38.37z M354.39,41.11c0,0.09,0,0.65,0,1.68c0,0.76-0.2,1.72-0.6,2.88
			c-0.76,2.14-1.72,3.71-2.88,4.69c-0.98,0.85-2.66,1.65-5.03,2.41c-0.76-0.18-1.88-0.6-3.35-1.27c0-0.98,0.2-1.76,0.6-2.34
			c0.27-0.4,0.85-0.94,1.74-1.61c1.12-0.76,2.63-2.01,4.55-3.75c0.4-0.49,0.76-1.18,1.07-2.08c0.22-0.76,0.44-1.49,0.67-2.21
			c0.18-0.58,0.46-1.16,0.86-1.74c0.54,0.18,1.08,0.38,1.61,0.61c0.53,0.18,0.98,0.58,1.34,1.21
			C354.64,39.98,354.44,40.49,354.39,41.11z"/>
		<path id="path4781" class="st0" d="M461.23,30.52c-2.99-1.7-7.52-4.11-13.59-7.23c-3.13-1.21-7.75-3.24-13.86-6.1
			c-0.35,0.27-1.99,1.25-4.89,2.95c-1.12,0.89-2.84,2.19-5.16,3.88c-2.54,1.79-4.2,2.88-4.96,3.28c-1.96,1.2-3.74,1.99-5.36,2.34
			c-0.8,0.18-1.96,0.58-3.48,1.2c-1.08-0.22-1.81-0.31-2.21-0.27c-0.4-0.18-1.59-0.4-3.55-0.67c-0.45-0.04-0.94-0.16-1.47-0.33
			c0.04-1.25,0.42-2.12,1.14-2.61c0.89-0.67,2.5-1.34,4.82-2.01c1.74-0.53,3.51-1.05,5.29-1.54c3.21-1.16,6.96-3.13,11.25-5.89
			c0.58-0.58,1.5-1.41,2.75-2.48c0.85-0.58,1.7-1.2,2.55-1.88c0.89-0.71,1.34-1.56,1.34-2.54c0-0.45,0.35-0.74,1.07-0.87
			c0.53-0.04,1.04-0.09,1.54-0.13c1.7,1.07,2.75,1.76,3.15,2.07c1.07,0.89,1.78,1.88,2.15,2.95c1.42,0.27,2.8,0.62,4.14,1.07
			c2.73,1.07,5.45,2.15,8.17,3.22c4.24,1.61,6.79,2.32,7.63,2.14c0.27,0.13,1.79,0.4,4.55,0.8c1.74,0.27,2.99,1.16,3.76,2.68
			c-0.45,1.29-1.37,2.57-2.75,3.82C463.86,29.63,462.52,30.35,461.23,30.52L461.23,30.52z M449.1,30.72
			c-0.94,0.45-2.35,0.87-4.22,1.27c-1.88,0.4-3.22,0.58-4.02,0.54c-0.98-0.09-1.36-0.14-1.13-0.14c-0.4,0-0.96,0.02-1.68,0.07
			c-0.85,0.05-1.41,0.09-1.68,0.13c-1.92,0.05-3.84,0.07-5.76,0.07c-2.23,0.09-4.13,0.33-5.7,0.74l-1.2-0.27l-2.61,0.47
			c-0.54-0.54-0.8-1.14-0.8-1.81v-1.14c0-1.25,0.54-2.12,1.6-2.61l1.08,0.27c2.76-0.98,8.7-1.45,17.81-1.41
			c3.44,0.04,6.32,0.67,8.64,1.87L449.1,30.72L449.1,30.72z M454,41.37c0,0.27-0.09,0.67-0.27,1.21c-0.14,0.49-0.21,0.89-0.21,1.2
			c0,0.09,0.05,0.25,0.14,0.47l0.14,7.17c0,0-0.02,0.2-0.07,0.6c-0.36,0.31-0.76,0.89-1.21,1.74c-2.81,0.49-4.22,0.73-4.22,0.73
			c-0.8,0-1.99-0.11-3.55-0.34c-1.57-0.22-2.75-0.33-3.55-0.33c-0.71,0-1.79,0.07-3.22,0.2c-1.43,0.09-2.48,0.13-3.15,0.13
			c-8.44,0-14.36,1.03-17.74,3.08c-0.67-0.45-1.14-1.16-1.41-2.14c-0.22-0.8-0.42-1.61-0.6-2.41c0.18-0.8,0.35-1.61,0.53-2.41
			c0.32-0.98,0.81-1.54,1.48-1.68l0.73-3.48c-0.13-0.58-0.58-1.07-1.34-1.48c-0.49-2.23-0.74-3.5-0.74-3.82
			c0-0.71,0.4-1.25,1.2-1.61c0.18-0.09,0.4-0.24,0.67-0.47l3.08,0.87c5.67-1.12,11.19-1.67,16.55-1.67c5.93,0,9.99,0.33,12.19,1
			c0.09-0.09,0.43-0.2,1-0.33c0.4-0.09,0.72-0.31,0.94-0.67c0.54-0.09,0.8-0.14,0.8-0.14s0.45,0.05,1.34,0.14l1.41,1.54l0.4,1.87
			L454,41.37L454,41.37z M447.83,43.52c-2.28-0.8-6.39-1.21-12.33-1.21c-7.54,0-12.18,0.49-13.93,1.47
			c-0.27,1.12-0.53,2.82-0.8,5.09l0.19,0.06c3.8-1.07,10.14-1.6,19.03-1.6c1.74,0,4.42,0.42,8.03,1.27l0.07-0.2L447.83,43.52
			L447.83,43.52z"/>
		<path id="path4783" class="st0" d="M525.01,30.06c-1.25,1.56-2.41,2.34-3.48,2.34c-0.71,0-1.75-0.14-3.08-0.4
			c-1.34-0.31-2.35-0.47-3.01-0.47l-0.13,0.34c0.13,0.94,0.27,1.85,0.4,2.75c0.13,1.07,0.11,1.98-0.07,2.74
			c-0.04,0.27-0.07,0.45-0.07,0.54c0,0,0.09,0.74,0.27,2.21c0,0,0,2.3,0,6.9c0,4.24-1.29,7.25-3.89,9.04
			c-1.2-3.21-1.8-7.3-1.8-12.25c0-1.03,0.02-2.52,0.07-4.49c0.09-2.01,0.13-3.5,0.13-4.49c0-0.13-0.11-1.32-0.33-3.55l-0.13-0.2
			l-0.2-0.07c-0.18,0-0.42,0-0.74,0c-0.31,0.04-0.56,0.07-0.74,0.07c-0.22,0-0.58-0.02-1.07-0.07c-0.5-0.05-0.88-0.07-1.14-0.07
			c-0.8,0-1.4,0.15-1.81,0.47c-0.49,5.09-1.94,9.73-4.35,13.93c-2.95,5.13-6.7,8.05-11.25,8.77c-0.27-0.22-0.94-0.4-2.01-0.53
			c-0.31-0.05-0.64-0.11-1-0.2c0.13-2.41,1.43-4.4,3.88-5.96c0.45-0.27,1.12-0.67,2.01-1.21c2.28-1.56,4.24-3.62,5.89-6.16
			c1.78-2.72,2.75-5.36,2.88-7.9l-0.2-0.07c-1.29,0.22-2.57,0.47-3.82,0.73c-1.38,0.4-2.36,1.19-2.94,2.34l-1.34-0.4l-1.07-2.41
			c0.04-0.71,0.36-1.78,0.94-3.21c0.54-0.71,3.69-1.74,9.45-3.08c0-0.13,0-0.27,0-0.4c0-0.71-0.25-1.18-0.74-1.41l-0.07-1.81
			c0.63-0.71,1.05-1.16,1.27-1.34c0.54-0.49,1.07-0.8,1.61-0.94l1.21,0.6l0.6,1.14c-0.14,1.03-0.27,2.12-0.4,3.28v0.2
			c0.18,0.14,0.47,0.2,0.87,0.2c-0.49,0,0.94-0.18,4.29-0.53l1-0.74c-0.09-0.76-0.18-1.52-0.27-2.28c-0.14-0.94-0.47-1.61-1-2.01
			c-0.09-0.85-0.11-1.63-0.07-2.34l-0.2-0.2h-0.14l-0.46,0.2c-1.07-0.23-1.9-0.33-2.48-0.33c-0.53,0-1.1,0.11-1.67,0.33
			c-4.16-0.09-7.28,0.73-9.38,2.48c-0.62-0.31-1-0.71-1.13-1.2c-0.13-0.54-0.25-1.1-0.34-1.67l0.53-2.54l1.41-1.61
			c4.91-0.45,9.04-0.92,12.39-1.41c1.69-0.27,2.94-0.4,3.75-0.4c0.09,0,0.31,0.04,0.67,0.14l0.27,0.07c0.09,0,0.15,0,0.2,0
			c3.66-0.31,5.49-0.47,5.49-0.47s1.99,0.2,5.96,0.6l0.4,2.34l-0.33,0.94c-0.54,0.18-1.21,0.65-2.01,1.41
			c-0.8,0.72-1.45,1.16-1.94,1.34c-0.27,0-1.16-0.09-2.67-0.27c-0.63-0.09-1.28-0.09-1.95,0c0.31,0.94,0.45,1.9,0.4,2.88
			c-0.8,0.63-1.2,1.63-1.2,3.01c0,0.45,0.02,0.89,0.07,1.34l0.93,0.34c0.85-0.09,1.32-0.11,1.41-0.07l8.37,0.74v3.28
			C525.71,29.19,525.42,29.57,525.01,30.06L525.01,30.06z M487.98,17.06l-0.67,0.27c-2.9-0.36-4.33-0.54-4.29-0.54
			c0,0-1.45,0.25-4.35,0.74l-0.6-0.13c-1.16,0.13-2.32,0.27-3.48,0.4c-1.3,0.27-2.25,0.89-2.88,1.87l-1.81-0.53
			c0.76-2.68,1.52-4.4,2.28-5.16c0.53-0.53,1.19-0.89,1.94-1.07c0.53-0.18,2.12-0.36,4.75-0.54c2.46-0.18,4.13-0.27,5.03-0.27h3.82
			c2.05,0.05,3.57,0.87,4.55,2.48c-0.49,1.07-1.09,1.79-1.81,2.14C489.97,16.96,489.14,17.06,487.98,17.06L487.98,17.06z
			 M489.66,32.67c0,0.67,0.04,1.7,0.13,3.08c0.14,1.34,0.2,2.34,0.2,3.01c0,0.53-0.11,1.38-0.33,2.54
			c-0.18,1.16-0.27,2.01-0.27,2.54c0,0,0.11,0.62,0.33,1.88c-1.2,1.7-3.23,2.63-6.09,2.81c-0.13,0.05-0.61,0.14-1.41,0.27
			c-0.76,0.13-1.18,0.2-1.27,0.2c-0.27,0-0.67-0.02-1.21-0.07c-0.53-0.09-0.96-0.13-1.28-0.13c-0.93,0-2,0.58-3.21,1.74
			c-0.99-0.9-1.47-2.03-1.47-3.42c0,0.49,0.2-1.83,0.6-6.96c0.18-2.32,0.34-4.8,0.47-7.43h-0.14c-3.04,9.91-7.46,14.87-13.26,14.87
			c-0.49,0-1.07-0.07-1.74-0.2l0.33-3.89l1.54-2.48l1.81-0.07c3.44-2.32,5.87-4.71,7.3-7.17c1.21-2.1,2.25-5.38,3.15-9.84
			l-0.27-1.41c-0.09-0.45,0.2-1.01,0.87-1.68c0.71-0.67,1.27-1,1.67-1c0.4,0,0.81,0.15,1.21,0.47l0.47,1.01
			c-1.07,1.47-1.56,3.08-1.47,4.82l1.61,0.47c2.28-0.8,4.85-1.2,7.7-1.2c0.72,0,1.32-0.31,1.81-0.94c0.71,0.31,1.43,0.67,2.14,1.07
			c0.75,0.36,1.3,0.83,1.61,1.41C490.17,29.43,489.66,31.33,489.66,32.67L489.66,32.67z M485.64,31.07c-0.4-0.31-0.94-0.47-1.6-0.47
			c-0.58,0-1.99,0.18-4.22,0.53c-0.45,1.56-0.76,3.51-0.94,5.83c-0.18,1.92-0.36,3.86-0.53,5.83c0.09,0.09,0.27,0.13,0.53,0.13
			c0.18,0,0.45-0.04,0.81-0.13c0.36-0.09,0.63-0.16,0.8-0.2c1.16,0,2.95-0.02,5.36-0.06l0.14-0.47
			C485.75,40.08,485.64,36.42,485.64,31.07L485.64,31.07z"/>
		<path id="path4785" class="st0" d="M571.37,27.85c-0.18,0.35-0.49,0.82-0.94,1.4c-0.22,0.18-1.03,0.38-2.41,0.61
			c-1.34,0.18-2.27,0.27-2.81,0.27c-1.56,0-3.32-1-5.29-3.01c-1.96-2.01-3.15-3.84-3.55-5.49l1.28-0.87
			c1.69,1.07,3.24,1.86,4.62,2.35c0.14,0.05,1.94,0.47,5.43,1.27c2.09,0.44,3.72,1.25,4.88,2.41
			C572.13,26.91,571.73,27.27,571.37,27.85z M577.26,26.58l-1.07,0.27l-0.47,0.8c-1.07-0.98-1.87-2.5-2.41-4.55
			c-0.22-0.85-0.4-1.45-0.54-1.81c-0.26-0.67-0.6-1.21-1-1.61l-1.14,1.34c-2.5-0.54-6.27-1.18-11.31-1.94
			c0.27,0.05-0.83,0.07-3.28,0.07c-0.49,0-1.23-0.02-2.21-0.07c-0.94-0.09-1.65-0.13-2.14-0.13c-1.34,0-3.98,0.33-7.91,1
			c-4.07,0.67-6.68,1.25-7.84,1.74c-0.94,0.4-1.7,1.27-2.28,2.61c-0.62,1.56-0.96,2.39-1.01,2.48c-0.49,0.94-1.05,1.59-1.68,1.94
			c-1.11,0-1.62-0.92-1.54-2.75c0.13-1.16,0.36-2.86,0.67-5.09l-1.01-3.68c0.67-0.8,2.01-1.21,4.02-1.21c1.11,0,2.09,0.14,2.94,0.4
			c2.9-0.67,7.28-1.56,13.13-2.68c0-0.09,0-0.15,0-0.2c0-0.49-0.29-1.12-0.87-1.88c-0.54-0.76-0.85-1.36-0.94-1.81
			c0.27-0.76,0.98-1.14,2.14-1.14c3.58,0,5.8,0.76,6.7,2.28c-0.22,0.62-0.53,1.58-0.94,2.88c0.04,0,0.16,0,0.34,0
			c0.18,0,0.42-0.02,0.74-0.07c0.31-0.04,0.53-0.07,0.67-0.07c4.77,0,9.28,0.89,13.53,2.68c0.27-0.27,0.69-0.65,1.27-1.14
			c1.16-0.62,2.5-0.93,4.02-0.93c0.49,0,0.96,0.24,1.41,0.74c0.49,0.45,0.74,0.94,0.74,1.47c0,0.18-0.05,0.44-0.14,0.8
			c-0.04,0.35-0.07,0.62-0.07,0.8c0,0,0.16,1.9,0.47,5.69c0.04,0.36-0.12,0.85-0.47,1.47C577.48,25.93,577.31,26.35,577.26,26.58
			L577.26,26.58z M545.52,25.44c-3.17,3.93-6.12,5.82-8.84,5.69h-0.67c-0.45-0.18-0.92-0.36-1.41-0.53c-0.44-0.18-0.67-0.51-0.67-1
			c0-1.25,0.94-2.46,2.81-3.62c0.75-0.49,2.28-1.23,4.55-2.21v-1.14c0.8-0.8,1.81-1.21,3.01-1.21c1.29,0,2.48,0.34,3.55,1.01
			C547.37,23.09,546.59,24.1,545.52,25.44L545.52,25.44z M583.56,53.23c-2.77,1.65-5.76,2.48-8.97,2.48c-0.09,0-1.25-0.16-3.48-0.47
			c-3.84-0.58-6.63-1.67-8.37-3.28c-2.01-1.83-3.01-4.62-3.01-8.37c0-2.23,0.62-4.4,1.87-6.5c-0.89-0.36-2.83-0.53-5.82-0.53
			c-0.09,0-0.27-0.02-0.53-0.07c-0.27-0.05-0.47-0.05-0.61,0l-2.54,0.2c-2.15,3.89-4.06,6.7-5.75,8.44
			c-1.84,1.92-4.67,3.88-8.51,5.9c-1.12,0.62-2.88,1.5-5.29,2.61c-1.92,0.49-4.84,1.41-8.77,2.75c-0.27-0.45-0.4-1.2-0.4-2.27
			c0-1.56,0.26-2.66,0.8-3.28c0.09-0.85,0.78-1.83,2.08-2.94c0.27-0.09,0.52-0.13,0.74-0.13c0.23,0,0.73,0.04,1.54,0.13
			c0.63,0.13,1.16,0.16,1.61,0.07l0.67,0.27c8.57-1.79,13.99-5.47,16.27-11.05l-0.33-0.07c-4.02,0.49-8.1,1.61-12.25,3.35
			c-0.49-0.49-0.74-1.27-0.74-2.34c0-0.63,0.16-1.47,0.47-2.54c0.71-0.72,1.27-1.07,1.68-1.07c0.17,0,0.69,0.18,1.54,0.54
			c2.86-1.3,6.32-2.44,10.38-3.42v-0.27l-0.13-0.14c-0.27-0.18-0.61-0.49-1-0.94l0.07-0.54c0.18-0.09,0.55-0.47,1.14-1.14
			c0.4-0.49,0.85-0.73,1.34-0.73c0.13,0,0.31,0.02,0.53,0.07c0.27,0.05,0.45,0.07,0.54,0.07c0.18,0,0.47-0.07,0.87-0.2
			c1.61,0.36,2.61,1.23,3.01,2.61l-0.4,0.94c0.04,0.04,0.83,0.07,2.34,0.07c2.28,0,4.49,0.13,6.63,0.4c0.22,0,0.76-0.2,1.61-0.6
			c0.89-0.4,1.51-0.6,1.88-0.6c0.22,0,0.49,0.07,0.81,0.2c1.96,0.13,3.45,1.14,4.48,3.01c-0.85,1.25-1.96,2.14-3.35,2.68l-0.74-0.33
			c-0.94,0.44-1.7,1.29-2.28,2.54c-0.54,1.2-0.8,2.43-0.8,3.68c0,2.9,2.57,4.75,7.7,5.56c2.01,0.18,4.04,0.38,6.1,0.6
			c2.68,0.31,4.6,0.74,5.76,1.27c0.13,0.31,0.2,0.65,0.2,1C584.09,51.62,583.91,52.43,583.56,53.23L583.56,53.23z"/>
		<path id="path4787" class="st0" d="M630.19,14.66c-0.58,0.04-1.43,0.13-2.55,0.27c-1.07,0.4-2.48,0.89-4.22,1.47
			c-0.36,0.22-0.92,0.52-1.68,0.87c-0.76,0.31-1.92,0.82-3.48,1.54c-1.48,0.09-2.63,0.42-3.48,1.01c-0.27-0.14-1.01-0.27-2.21-0.4
			c-0.98-0.14-1.61-0.47-1.87-1c1.65-1.92,5.26-4.22,10.85-6.9v-0.94l1.34-1.47c0.22-0.14,0.42-0.2,0.6-0.2
			c0.13,0,0.33,0.04,0.6,0.13c0.27,0.05,0.45,0.07,0.54,0.07c0.09-0.05,0.6-0.47,1.54-1.27l0.54,0.2c0.27,0.58,1.05,1.27,2.34,2.07
			c1.34,0.8,2.01,1.54,2.01,2.21C631.06,13.07,630.78,13.86,630.19,14.66L630.19,14.66z M606.22,14.19
			c-1.07,0.67-2.72,1.01-4.95,1.01c-0.81,0-2.5,0.29-5.09,0.87c-0.49,0.09-0.83,0.13-1,0.13c-0.54,0-1.34-0.05-2.41-0.13
			c-1.03-0.14-1.81-0.2-2.35-0.2c-0.71,0-1.32,0.36-1.81,1.07c-0.85-1.21-1.32-2.66-1.41-4.35l2.27-2.81c0.32,0.22,0.61,0.56,0.88,1
			l0.07,0.07l0.2,0.07c1.65-0.4,3.73-0.69,6.23-0.87c2.1-0.13,4.19-0.25,6.29-0.33c0.18-0.09,0.36-0.14,0.54-0.14
			c-0.09,0,0.89,0.58,2.94,1.74l0.27,1.21L606.22,14.19L606.22,14.19z M637.09,29.73c-0.58,0.04-1.49,0.31-2.75,0.81
			c-3.48-0.36-5.25-0.54-5.29-0.54c-0.58,0-1.12,0.11-1.61,0.34l0.47,0.87c0,0.4-0.16,0.94-0.47,1.61c-0.27,0.67-0.4,1.16-0.4,1.48
			c0,0.67,0.04,1.65,0.13,2.95c0.09,1.29,0.14,2.25,0.14,2.88c0,0.36-0.05,0.89-0.14,1.61c-0.09,0.72-0.13,1.23-0.13,1.54
			c0,0.31,0,0.74,0,1.27c0.04,0.67,0.06,1.12,0.06,1.34c0,1.03-0.11,2.28-0.33,3.75c-0.22,1.25-0.43,2.52-0.61,3.82
			c-0.36,0.18-0.62,0.54-0.8,1.07c-0.18,0.54-0.33,0.91-0.47,1.14c-0.22,0.36-0.54,0.67-0.93,0.94c-0.98-0.72-1.56-1.68-1.74-2.88
			c0-0.09,0-1.25,0-3.48c0-1.2-0.07-2.99-0.21-5.36c-0.13-2.36-0.2-4.15-0.2-5.36c0-0.09,0.16-2.19,0.47-6.29
			c-0.09-0.22-0.67-1-1.74-2.34l-6.36,0.74c-0.54,0.85-0.8,2.73-0.8,5.63c0,2.28-1.14,4.95-3.41,8.04c-1.92,2.59-4,4.64-6.23,6.16
			c-0.9,0.63-2.1,1.18-3.61,1.68c-1.66,0.53-2.99,0.78-4.02,0.74h-0.47c-0.35-0.23-0.62-0.56-0.8-1.01l-0.13-0.33
			c-0.23-0.53-0.56-0.85-1.01-0.94c0-0.45,0.05-0.83,0.14-1.14c0.27-0.22,0.63-0.62,1.07-1.21c2.37-0.94,4.71-2.19,7.03-3.75
			c1.12-0.67,2.66-1.81,4.62-3.42c1.56-1.7,2.61-4.04,3.15-7.03c0.32-1.61,0.52-4.22,0.61-7.83c-1.03-0.98-1.54-1.79-1.54-2.41
			c0-0.23,0.04-0.49,0.13-0.81l2.81-1.74c0.36,0.58,0.92,1.03,1.68,1.34c0.76,0.31,1.29,0.78,1.61,1.4
			c6.21-1.16,11.05-1.74,14.53-1.74c1.34,0,2.68,0.07,4.02,0.2c0.63-0.13,1.25-0.2,1.88-0.2c1.38,0,2.9,0.47,4.55,1.41v2.61
			C639.26,28.68,638.3,29.5,637.09,29.73L637.09,29.73z M606.49,25.24c-0.14,0.98-0.2,1.52-0.2,1.61c0,0,0.07,0.69,0.2,2.07
			c0,0.4-0.27,0.94-0.81,1.61c-0.35,0.49-0.46,1-0.33,1.54c-0.93,1.96-2.07,3.19-3.42,3.68c-0.76,0.31-2.39,0.49-4.89,0.53
			c-1.38,0-2.61,0.14-3.68,0.4l-0.27-0.07c-0.72,0.18-1.72,0.4-3.01,0.67c-0.22,1.34-0.67,3.3-1.34,5.89
			c-0.98,2.77-2.43,5.11-4.36,7.03c-2.23,2.14-4.73,3.39-7.5,3.75l-2.68-1.07l0.13-3.15c1.16-0.76,2.77-1.85,4.83-3.28
			c2.45-1.75,4.19-3.5,5.22-5.29c1.08-1.83,1.63-4.24,1.67-7.23c0.09-0.31,0.18-0.76,0.27-1.34c0.09-0.76,0.13-1.72,0.13-2.88v-1.34
			l-0.33-0.54l-0.8,0.73l-0.47,0.07c-0.67,0-1.11-0.4-1.34-1.21c-0.13-0.62-0.27-1.27-0.4-1.94c-0.04-0.36-0.24-0.65-0.6-0.87
			c0.58-0.85,1.41-1.74,2.48-2.68c0.26,0.04,0.67,0.29,1.2,0.74c2.15-0.58,5.45-1.05,9.91-1.41c0.22,0,0.85-0.09,1.88-0.27
			c0.76-0.09,1.36-0.13,1.81-0.13c0.27,0,0.62,0.07,1.07,0.2c0.45,0.09,0.78,0.13,1.01,0.13c0.67,0,1.45-0.53,2.34-1.61
			c0.27,0.04,0.7,0.11,1.27,0.2c0.22,0.09,0.67,0.58,1.34,1.47c0.67,0.85,1.07,1.45,1.2,1.81L606.49,25.24L606.49,25.24z
			 M602.34,25.78l-1.14-0.27c-0.98,0.22-2.72,0.38-5.22,0.47c-2.23,0.09-3.98,0.31-5.23,0.67l0.6,1.34l-0.6,2.74l0.2,0.61
			c2.41-0.54,4.22-0.8,5.42-0.8c1.25,0,3.08-0.11,5.49-0.33c0.09-0.54,0.27-1.34,0.53-2.41L602.34,25.78L602.34,25.78z"/>
	</g>
</g>
</svg>
