<?xml version="1.0" encoding="utf-8"?>
<!-- Generator: Adobe Illustrator 27.2.0, SVG Export Plug-In . SVG Version: 6.00 Build 0)  -->
<svg version="1.1" id="_レイヤー_1" xmlns="http://www.w3.org/2000/svg" xmlns:xlink="http://www.w3.org/1999/xlink" x="0px"
	 y="0px" viewBox="0 0 265.6 61.8" style="enable-background:new 0 0 265.6 61.8;" xml:space="preserve">
<style type="text/css">
	.st0{fill:#FFFFFF;}
</style>
<g>
	<path class="st0" d="M51.8,7.4L31.4,0L10.9,7.4L0,26.3l3.8,21.5l16.7,14h21.8l16.7-14l3.8-21.5L51.8,7.4z M57.9,47.1l-16,13.5H20.9
		l-16-13.5L1.2,26.5L11.7,8.3l19.7-7.2L51,8.3l10.5,18.1L57.9,47.1z"/>
	<path class="st0" d="M49.8,9.8L31.4,3.1L12.9,9.8l-9.8,17l3.4,19.3l15,12.6h19.6l15-12.6l3.4-19.3L49.8,9.8L49.8,9.8z M31.5,4.3
		L31.5,4.3L31.5,4.3L31.5,4.3L31.5,4.3c10.5,6.9,13.8,20.9,7.5,31.9c-1.2,2.1-2.6,3.9-4.3,5.4c-0.9-0.5-1.7-1.1-2.5-1.7
		c1.6-1.5,3.1-3.2,4.2-5.2c5.2-9,2.9-20.3-4.9-26.7c-4.8,3.9-7.5,9.7-7.7,15.6c-1,0.3-2,0.7-3,1.2C20.6,16.9,24.4,9,31.5,4.3
		L31.5,4.3z M7.6,45.7L7.6,45.7L7.6,45.7c0.8-12.5,11.2-22.5,23.9-22.5c2.4,0,4.7,0.4,6.8,1c0,1-0.1,2-0.2,3.1
		c-2.1-0.7-4.3-1.1-6.6-1.1c-10.4,0-19.1,7.6-20.7,17.6c5.8,2.2,12.1,1.7,17.4-1.2c0.8,0.7,1.6,1.4,2.5,2
		C23.9,48.9,15.2,49.5,7.6,45.7z M55.4,45.7c-11.2,5.6-25,1.5-31.4-9.5c-1.2-2.1-2-4.2-2.6-6.4c0.9-0.5,1.8-1,2.8-1.3
		c0.4,2.2,1.2,4.3,2.4,6.3c1.3,2.3,3,4.2,4.9,5.8l0,0l0,0c0,0,0,0,0,0c5.7,4.6,13.6,6,20.6,3.3c-1-6.1-4.6-11.4-9.7-14.5
		c0.2-1,0.4-2.1,0.5-3.2C50,30,54.9,37.3,55.4,45.7C55.4,45.7,55.4,45.7,55.4,45.7z"/>
</g>
<g>
	<path class="st0" d="M82.9,8.2h16c2.8,0,5.2,0.3,7.3,0.9c2.1,0.6,3.8,1.4,5.2,2.5s2.4,2.4,3.2,3.8c0.7,1.5,1.1,3.1,1.1,4.8
		c0,1.4-0.3,2.8-0.8,4.1c-0.5,1.2-1.3,2.4-2.3,3.4c-1,1-2.2,1.9-3.6,2.6s-2.9,1.3-4.6,1.7l16.9,22.5h-9L96.2,32.8h-5.5v21.8h-7.8
		V8.2z M90.7,30.5h4.5c1.8,0,3.4-0.2,4.8-0.7c1.5-0.5,2.8-1.1,3.8-2s1.9-1.9,2.6-3.1c0.6-1.2,0.9-2.6,0.9-4.1c0-1.4-0.2-2.6-0.7-3.8
		c-0.5-1.2-1.2-2.2-2-3c-0.9-0.8-1.9-1.5-3.1-1.9s-2.5-0.7-3.9-0.7h-6.9L90.7,30.5L90.7,30.5z"/>
	<path class="st0" d="M122.6,8.2h7.8v46.4h-7.8C122.6,54.6,122.6,8.2,122.6,8.2z"/>
	<path class="st0" d="M143.5,31.5c0,3.3,0.5,6.2,1.5,8.8s2.3,4.8,4,6.5c1.7,1.8,3.7,3.2,6.1,4.1c2.3,0.9,4.9,1.4,7.6,1.4
		c1.6,0,3.2-0.3,4.7-1s2.9-1.5,4.2-2.5s2.5-2.2,3.5-3.4c1-1.3,1.9-2.6,2.5-3.9l3.3,2.1c-1,1.5-2.1,3-3.4,4.5
		c-1.3,1.4-2.8,2.7-4.5,3.8c-1.7,1.1-3.6,2-5.8,2.7c-2.1,0.7-4.6,1-7.2,1s-5-0.3-7.2-0.9c-2.3-0.6-4.4-1.4-6.2-2.5s-3.6-2.3-5.1-3.8
		c-1.5-1.5-2.8-3.1-3.8-4.9c-1-1.8-1.8-3.7-2.4-5.8c-0.6-2-0.8-4.2-0.8-6.3s0.3-4.3,0.9-6.3s1.4-4,2.4-5.8c1.1-1.8,2.4-3.5,3.9-5
		s3.3-2.8,5.2-3.9s4-1.9,6.3-2.5s4.7-0.9,7.3-0.9s4.7,0.3,6.8,1s4,1.6,5.7,2.6s3.2,2.4,4.6,3.8s2.5,2.9,3.4,4.5l-3.4,2.3
		c-1.9-3.8-4.1-6.5-6.5-8.3s-5.1-2.6-8.3-2.6c-2.7,0-5.2,0.5-7.5,1.5s-4.4,2.4-6.1,4.2c-1.7,1.8-3.1,4-4.1,6.6
		S143.5,28.3,143.5,31.5L143.5,31.5z"/>
	<path class="st0" d="M206.1,55.7c-2.4,0-4.7-0.3-6.9-0.9c-2.2-0.6-4.2-1.4-6.1-2.5c-1.9-1.1-3.6-2.3-5.2-3.8s-2.9-3.2-4-5
		c-1.1-1.8-1.9-3.8-2.5-5.9s-0.9-4.3-0.9-6.5s0.3-4.4,0.9-6.4c0.6-2,1.4-4,2.5-5.7c1.1-1.8,2.4-3.4,4-4.9c1.6-1.4,3.3-2.7,5.2-3.8
		c1.9-1,3.9-1.9,6.1-2.4c2.2-0.6,4.5-0.8,6.9-0.8s4.7,0.3,6.9,0.8s4.2,1.4,6.1,2.4s3.6,2.3,5.2,3.8c1.6,1.4,2.9,3.1,4,4.9
		c1.1,1.8,1.9,3.7,2.5,5.7s0.9,4.2,0.9,6.4s-0.3,4.4-0.9,6.5c-0.6,2.1-1.4,4.1-2.5,5.9s-2.4,3.5-4,5s-3.3,2.8-5.2,3.8
		c-1.9,1.1-3.9,1.9-6.1,2.5C210.8,55.4,208.5,55.7,206.1,55.7z M206.1,53.4c2.6,0,5-0.5,7-1.7c2-1.1,3.8-2.7,5.1-4.6s2.4-4.3,3.2-7
		s1.1-5.7,1.1-8.9s-0.4-6.1-1.1-8.7s-1.8-4.9-3.2-6.9c-1.4-1.9-3.1-3.4-5.1-4.5c-2-1.1-4.4-1.6-7-1.6S201,10,199,11
		s-3.8,2.6-5.1,4.5c-1.4,1.9-2.4,4.2-3.1,6.9s-1.1,5.6-1.1,8.7s0.4,6.2,1.1,8.9s1.7,5.1,3.1,7c1.4,2,3.1,3.5,5.1,4.6
		C201,52.8,203.4,53.4,206.1,53.4z"/>
	<path class="st0" d="M249.5,52.7c1.1,0,2.3-0.2,3.4-0.5c1.1-0.3,2.1-0.8,3-1.4c0.9-0.6,1.6-1.4,2.1-2.3c0.5-0.9,0.8-1.9,0.8-3.1
		c0-1.4-0.4-2.7-1.1-3.8s-1.7-2.1-2.9-3s-2.6-1.8-4.1-2.6s-3.1-1.6-4.7-2.5s-3.1-1.7-4.7-2.6s-2.9-1.9-4.1-3s-2.1-2.3-2.9-3.7
		c-0.7-1.4-1.1-2.9-1.1-4.7s0.3-3.4,1-4.9s1.6-2.8,2.9-3.9s2.9-2,4.8-2.6c1.9-0.6,4-0.9,6.5-0.9c4.4,0,7.9,0.9,10.4,2.8
		c2.5,1.8,4.4,4.5,5.5,8l-4,1.8c-0.5-1.4-1.1-2.7-1.8-3.9s-1.6-2.2-2.6-3c-1-0.8-2.2-1.5-3.5-1.9c-1.3-0.4-2.8-0.7-4.4-0.7
		c-1.5,0-2.8,0.2-3.9,0.6s-2,0.9-2.7,1.6c-0.7,0.7-1.3,1.4-1.6,2.2c-0.4,0.8-0.6,1.7-0.6,2.5c0,1.2,0.4,2.3,1.1,3.4s1.7,2,3,2.9
		s2.6,1.8,4.2,2.6c1.6,0.8,3.2,1.7,4.8,2.5c1.6,0.9,3.2,1.8,4.8,2.7c1.6,0.9,3,2,4.2,3.1s2.2,2.3,3,3.7s1.1,2.8,1.1,4.4
		c0,1.8-0.4,3.6-1,5.2c-0.7,1.6-1.8,3-3.1,4.2s-3.1,2.2-5.2,2.9c-2.1,0.7-4.5,1-7.2,1c-2.2,0-4.2-0.2-6-0.7
		c-1.8-0.5-3.3-1.2-4.6-2.1c-1.3-0.9-2.5-2.1-3.4-3.4c-1-1.3-1.7-2.9-2.4-4.6l4.2-1.7c0.5,1.5,1.1,2.9,2,4.1s1.8,2.2,2.9,3
		c1.1,0.8,2.3,1.5,3.7,1.9S248,52.7,249.5,52.7L249.5,52.7z"/>
</g>
</svg>
